<?xml version="1.0" standalone="no"?>
<!DOCTYPE svg PUBLIC "-//W3C//DTD SVG 20010904//EN"
 "http://www.w3.org/TR/2001/REC-SVG-20010904/DTD/svg10.dtd">
<svg version="1.0" xmlns="http://www.w3.org/2000/svg"
 width="1764.000000pt" height="700.000000pt" viewBox="0 0 1764.000000 700.000000"
 preserveAspectRatio="xMidYMid meet">

<g transform="translate(0.000000,700.000000) scale(0.100000,-0.100000)"
fill="#000000" stroke="none">
<path d="M1246 6761 c-12 -13 -16 -32 -14 -62 3 -40 6 -44 31 -47 15 -2 27 -9
27 -18 0 -17 16 -19 26 -3 17 29 33 113 23 131 -13 25 -70 24 -93 -1z m58 -19
c7 -12 -19 -84 -27 -75 -9 8 -9 68 0 76 9 9 21 9 27 -1z"/>
<path d="M16315 6708 c9 -84 13 -97 25 -78 7 11 10 11 10 2 0 -15 43 -33 50
-21 3 4 25 3 49 -2 24 -5 49 -8 55 -5 6 2 1 5 -11 5 -13 1 -23 5 -23 10 0 5
-19 12 -42 16 -73 11 -76 13 -80 55 -3 33 0 40 20 49 31 15 19 31 -24 31 l-35
0 6 -62z"/>
<path d="M1195 6594 c-92 -15 -195 -44 -195 -54 0 -5 -10 -11 -22 -14 -13 -3
-39 -20 -58 -37 -19 -17 -29 -27 -21 -23 10 5 12 3 7 -5 -5 -7 -11 -10 -14 -7
-3 4 -16 -4 -29 -16 l-23 -22 -31 30 c-17 16 -46 55 -65 87 -20 31 -37 57 -39
57 -19 0 -76 -47 -81 -66 -4 -14 -5 -26 -3 -27 2 -1 29 -19 59 -39 30 -20 70
-43 88 -52 l33 -17 -45 -57 c-38 -48 -95 -153 -70 -130 4 4 14 2 22 -5 13 -9
14 -9 8 1 -4 6 -3 12 3 12 5 0 12 -6 14 -12 4 -8 6 -7 6 3 1 9 -6 19 -14 23
-8 3 -15 13 -15 21 0 9 5 13 10 10 6 -4 10 -3 9 2 -3 19 2 33 12 33 8 0 8 -5
-1 -15 -13 -15 -2 -21 16 -7 5 4 -1 -2 -14 -14 -23 -21 -23 -21 -4 -26 16 -5
24 2 36 27 19 39 20 49 4 39 -7 -4 -8 -3 -4 5 4 6 11 9 16 6 5 -3 14 4 20 15
6 12 17 20 24 18 6 -2 85 -78 175 -170 108 -112 161 -174 159 -185 -3 -16 -18
-18 -136 -21 -157 -3 -155 -6 -92 113 22 42 40 79 40 82 0 4 -11 -4 -25 -17
-26 -24 -66 -102 -78 -152 -7 -28 -8 -28 -90 -27 -115 1 -116 1 -102 71 7 35
8 63 2 70 -6 9 -7 8 -3 -4 3 -10 1 -18 -4 -18 -5 0 -11 -8 -14 -17 -2 -10 -4
-1 -3 19 1 20 -1 40 -5 43 -8 9 -17 -38 -20 -102 l-2 -52 -38 -6 c-47 -8 -49
-22 -6 -33 31 -8 33 -12 40 -63 12 -90 29 -150 64 -225 42 -88 65 -112 92 -92
19 13 18 16 -21 87 -35 64 -41 71 -48 52 -11 -28 -14 -27 -16 6 0 15 -9 33
-19 40 -10 7 -14 16 -10 20 4 4 16 -3 26 -17 24 -31 24 -28 0 40 -18 54 -19
54 -20 20 -2 -31 -3 -29 -14 21 -7 30 -16 61 -20 67 -4 7 -5 12 -2 12 3 0 12
-12 21 -27 l15 -28 -6 36 c-6 35 -5 36 33 42 73 13 153 8 171 -9 10 -11 17
-13 20 -5 2 6 30 11 70 12 37 0 93 4 124 8 48 6 59 4 73 -11 14 -17 13 -22
-17 -61 -39 -51 -162 -168 -175 -166 -19 3 -27 -2 -15 -10 9 -6 -14 -33 -85
-99 -132 -122 -192 -172 -207 -172 -19 0 -48 -36 -44 -56 1 -9 15 -26 29 -36
35 -27 67 -16 85 28 19 46 82 114 105 114 13 0 17 5 13 18 -5 15 -4 15 6 -1 9
-14 15 -16 26 -6 9 8 14 8 14 1 0 -6 -8 -16 -17 -21 -10 -6 -13 -11 -7 -11 6
0 19 9 28 19 17 18 16 20 -3 26 -12 3 -21 12 -21 18 0 7 56 68 125 137 69 68
125 127 125 131 0 5 16 19 35 32 43 29 82 25 96 -10 12 -32 12 -140 -1 -148
-12 -8 -129 22 -157 41 -30 19 -39 0 -13 -24 22 -20 119 -52 158 -52 20 0 21
-4 21 -136 l1 -137 -48 6 c-80 11 -103 17 -161 45 -31 14 -61 27 -68 28 -6 1
-22 11 -33 22 -24 22 -52 19 -43 -4 3 -8 10 -11 16 -7 6 4 8 0 5 -9 -9 -23 36
-56 102 -76 27 -8 89 -9 101 -1 7 4 19 1 27 -7 7 -8 28 -14 46 -12 41 2 52 -5
60 -43 4 -21 1 -35 -9 -46 -22 -21 -29 -60 -18 -96 7 -26 14 -33 38 -35 45 -4
58 10 63 71 4 49 2 56 -17 67 -17 9 -21 19 -19 50 1 21 6 36 11 33 4 -3 6 -12
3 -20 -5 -12 1 -14 36 -8 77 11 100 17 94 23 -9 8 -46 10 -41 1 3 -4 -11 -9
-29 -11 -19 -2 -32 0 -30 4 3 4 13 8 23 8 9 0 21 4 27 9 13 13 53 16 87 6 17
-4 33 -3 38 2 7 7 2 9 -15 6 -18 -4 -26 -1 -26 9 0 18 73 44 90 33 9 -5 11 -4
6 3 -4 7 -2 12 3 12 6 0 11 -7 11 -16 0 -8 4 -13 9 -10 5 3 7 15 4 26 -4 16
-2 19 11 14 9 -3 16 -1 16 6 0 6 5 8 11 5 6 -4 27 6 48 23 l37 30 67 -62 c37
-34 67 -70 67 -79 0 -26 44 -51 68 -38 42 22 35 40 -45 117 -43 40 -85 74 -94
74 -9 0 -20 7 -23 16 -10 25 -7 36 7 28 9 -5 9 -4 0 6 -6 7 -9 19 -6 28 5 10
2 13 -6 8 -7 -5 -10 -14 -7 -22 5 -12 2 -12 -16 -3 -48 26 -348 315 -348 336
0 6 7 19 16 27 12 13 40 16 141 15 l125 0 -5 -47 c-3 -26 -8 -58 -12 -72 -6
-24 -6 -25 10 -5 9 11 18 30 20 43 3 12 7 33 10 46 6 31 45 40 131 31 59 -6
64 -8 59 -28 -25 -112 -26 -118 -9 -135 13 -13 14 -17 3 -21 -7 -2 -15 1 -17
8 -2 6 -20 -21 -40 -61 -36 -73 -48 -127 -28 -124 6 1 11 4 12 6 0 3 14 20 31
38 30 34 41 90 16 85 -15 -3 -17 13 -3 22 6 3 10 2 10 -3 0 -6 8 -13 17 -16
10 -4 14 -4 10 0 -4 4 0 18 9 32 9 13 14 35 11 48 -2 14 0 21 6 17 6 -4 8 0 4
10 -3 10 -2 17 2 17 5 0 12 7 15 16 3 8 2 12 -4 9 -6 -3 -10 1 -10 9 0 9 5 16
10 16 6 0 10 7 10 16 0 8 -5 12 -11 8 -7 -4 -10 1 -7 12 2 11 10 19 18 19 26
0 18 40 -8 43 -18 3 -23 8 -19 23 3 10 1 17 -4 13 -5 -3 -9 -1 -9 4 0 6 7 12
15 16 20 7 19 48 -4 121 -27 84 -42 115 -54 108 -7 -4 -8 1 -3 12 4 12 -5 36
-30 73 l-36 55 46 46 c43 43 46 44 59 27 11 -15 17 -17 35 -7 33 18 26 57 -21
108 -18 21 -22 21 -48 7 -16 -8 -29 -22 -29 -32 0 -10 -20 -41 -46 -69 l-45
-52 -30 34 c-62 70 -198 126 -349 145 -46 5 -87 9 -90 9 -3 -1 -41 -7 -85 -15z
m70 -113 c-4 -42 -9 -79 -11 -82 -2 -3 -25 -12 -51 -19 -27 -7 -59 -19 -73
-25 -14 -7 -42 -21 -63 -31 -21 -11 -43 -25 -49 -31 -6 -7 9 -2 33 11 24 13
81 36 127 49 76 24 82 24 82 7 0 -9 3 -31 6 -48 6 -29 4 -31 -37 -42 -71 -18
-95 -30 -125 -61 l-28 -29 -36 37 c-19 21 -68 69 -108 107 -40 38 -71 69 -70
70 2 1 20 14 40 29 21 15 77 46 125 69 98 46 95 45 124 47 11 0 18 4 16 9 -3
4 20 7 50 8 l55 1 -7 -76z m148 63 c40 -9 99 -29 131 -45 33 -15 65 -25 70
-22 6 3 8 3 4 -2 -8 -9 45 -46 71 -50 8 -1 16 -11 17 -23 3 -15 -21 -45 -92
-114 -52 -51 -101 -93 -107 -93 -12 0 -23 7 -51 32 -8 7 -16 9 -20 6 -3 -4 -6
0 -6 7 0 7 -3 10 -7 6 -4 -4 10 -23 32 -42 l40 -34 -56 -53 c-31 -28 -64 -67
-73 -84 -9 -18 -20 -33 -25 -33 -14 0 -41 124 -41 186 l0 57 33 -6 c17 -4 43
-9 57 -13 23 -7 24 -6 10 11 -11 14 -12 17 -1 11 9 -6 12 -4 9 5 -3 8 -28 21
-56 29 -50 14 -52 16 -52 51 0 19 2 38 5 41 7 7 168 -38 209 -58 l31 -15 -29
25 c-17 14 -33 23 -37 20 -4 -2 -9 2 -12 9 -2 7 -38 21 -78 31 -41 11 -77 24
-81 30 -4 6 -8 41 -8 79 0 78 -3 77 113 51z m292 -94 c10 -11 16 -20 13 -20
-3 0 -13 9 -23 20 -10 11 -16 20 -13 20 3 0 13 -9 23 -20z m108 -100 c15 -17
15 -21 3 -26 -8 -3 -19 -3 -24 0 -5 3 5 -24 22 -59 30 -63 31 -64 51 -47 19
17 20 16 3 -3 -15 -19 -15 -25 2 -90 10 -38 21 -91 24 -117 l7 -48 -95 0 c-77
0 -97 3 -104 16 -8 15 -10 15 -15 0 -5 -13 -25 -16 -124 -16 -65 0 -124 4
-132 9 -24 15 -3 60 56 122 31 32 60 56 64 53 5 -3 9 3 9 14 0 23 35 56 49 47
6 -3 11 0 11 7 0 18 141 158 160 158 9 0 23 -9 33 -20z m33 -55 c1 -7 -4 -16
-12 -19 -9 -3 -14 1 -14 13 0 33 21 38 26 6z m-597 -221 c-7 -8 -7 -14 -1 -14
15 0 21 -37 9 -49 -14 -14 -37 -14 -37 -1 0 13 -9 24 -84 102 l-60 61 23 18
c12 10 39 21 59 25 20 4 51 13 67 20 l30 12 3 -80 c2 -50 -1 -85 -9 -94z m59
-90 c5 -48 -14 -86 -41 -82 -30 4 -35 48 -7 73 11 10 20 25 20 32 0 28 25 6
28 -23z m612 -118 c0 -3 -4 -8 -10 -11 -5 -3 -10 -1 -10 4 0 6 5 11 10 11 6 0
10 -2 10 -4z m-511 -81 c51 -52 61 -68 52 -79 -15 -18 -93 -55 -132 -63 l-29
-5 6 83 c7 108 11 129 28 129 7 0 41 -29 75 -65z m128 -122 c171 -162 165
-155 148 -173 -8 -9 -12 -19 -9 -22 3 -3 0 -9 -7 -14 -8 -4 -10 -3 -5 4 4 7 3
12 -3 12 -5 0 -13 -4 -16 -10 -10 -16 -128 -78 -171 -89 -22 -6 -68 -15 -102
-19 l-62 -9 0 79 c0 55 4 78 13 79 10 0 10 2 0 6 -8 3 -13 24 -13 53 0 47 0
47 38 54 39 6 122 58 122 76 0 21 29 9 67 -27z m-798 -21 c-1 -15 -2 -15 -6 1
-2 9 -9 14 -15 11 -7 -4 -8 -2 -4 5 10 15 26 4 25 -17z m1099 4 c-2 -23 -38
-57 -38 -36 0 5 4 10 9 10 5 0 12 11 15 25 8 32 16 32 14 1z m-1071 -78 c-3
-8 -6 -5 -6 6 -1 11 2 17 5 13 3 -3 4 -12 1 -19z m543 -398 c0 -22 -4 -40 -10
-40 -5 0 -10 18 -10 40 0 22 5 40 10 40 6 0 10 -18 10 -40z"/>
<path d="M1760 6350 c0 -5 7 -10 15 -10 8 0 15 5 15 10 0 6 -7 10 -15 10 -8 0
-15 -4 -15 -10z"/>
<path d="M1470 5550 c-9 -6 -10 -10 -3 -10 6 0 15 5 18 10 8 12 4 12 -15 0z"/>
<path d="M1425 5530 c-16 -7 -17 -9 -3 -9 9 -1 20 4 23 9 7 11 7 11 -20 0z"/>
<path d="M1345 5510 c-3 -5 1 -10 9 -10 9 0 16 5 16 10 0 6 -4 10 -9 10 -6 0
-13 -4 -16 -10z"/>
<path d="M15708 6579 c-10 -5 -18 -20 -17 -32 0 -21 1 -21 11 3 6 15 12 20 15
12 3 -6 10 -9 16 -6 9 5 9 4 1 -5 -9 -10 -6 -19 11 -37 25 -27 40 -30 49 -11
4 6 4 2 2 -11 -3 -18 3 -26 37 -43 l42 -20 -28 26 c-15 14 -25 25 -22 25 3 0
-2 14 -12 30 -10 17 -23 28 -31 25 -7 -3 -10 0 -7 6 8 12 -22 49 -39 49 -6 0
-19 -5 -28 -11z"/>
<path d="M16905 6550 c-21 -22 -35 -40 -31 -40 5 0 -2 -9 -15 -21 l-24 -21 27
16 c15 9 37 16 49 16 16 0 20 5 16 20 -3 13 -1 18 6 13 7 -4 8 0 4 11 -4 10
-3 15 3 11 6 -3 10 -2 10 4 0 7 8 7 27 0 27 -10 27 -10 8 10 -25 29 -35 27
-80 -19z"/>
<path d="M16329 6495 c-1 -28 -2 -71 -3 -97 0 -25 2 -44 7 -41 4 2 8 30 8 61
2 53 2 54 10 22 6 -26 7 -20 3 25 -6 77 -24 97 -25 30z"/>
<path d="M4476 6515 c-3 -9 -6 -25 -6 -35 0 -15 -14 -20 -83 -30 -97 -14 -135
-30 -67 -28 25 0 59 -3 75 -7 20 -4 26 -3 16 3 -8 6 -10 12 -3 16 6 4 15 -1
20 -10 8 -15 11 -14 25 6 15 21 16 21 17 4 0 -10 3 -50 6 -88 7 -79 5 -81 -69
-91 -30 -4 -45 -10 -37 -15 10 -6 9 -9 -1 -12 -8 -3 -12 -8 -9 -11 3 -3 25 1
49 9 67 23 71 18 71 -91 0 -94 -1 -96 -26 -105 -14 -6 -31 -23 -37 -40 l-11
-30 -98 0 -98 0 0 33 c0 39 30 105 59 131 23 21 28 46 9 46 -6 0 -1 12 13 27
21 25 22 26 2 9 -13 -10 -41 -42 -63 -71 -32 -42 -42 -64 -48 -111 l-7 -59
-85 0 c-68 0 -84 3 -82 14 2 11 0 12 -11 3 -8 -7 -16 -10 -18 -8 -8 9 3 96 12
90 5 -3 8 5 6 18 -1 12 3 23 10 23 6 0 15 4 20 9 5 5 3 6 -4 2 -8 -4 -13 -1
-13 8 0 9 4 16 9 16 6 0 8 9 6 21 -3 15 2 23 16 26 10 3 18 11 17 18 -2 7 9
24 25 38 30 29 31 29 18 -7 -7 -18 6 -9 46 32 31 31 55 62 54 67 -1 6 1 7 5 3
8 -8 104 41 104 53 0 4 -5 11 -12 15 -6 4 -8 3 -5 -2 3 -6 -3 -15 -13 -22 -14
-9 -21 -9 -26 0 -4 6 -3 8 4 4 16 -10 26 14 12 27 -10 9 -11 9 -5 -2 6 -11 4
-13 -7 -8 -9 3 -37 -7 -64 -25 -43 -27 -46 -31 -31 -43 16 -11 16 -13 2 -19
-9 -3 -13 -2 -10 3 3 5 0 13 -7 17 -16 10 -74 -57 -128 -147 -35 -57 -45 -85
-54 -150 l-10 -79 -48 0 c-44 0 -48 -2 -48 -25 0 -23 3 -25 47 -22 l47 2 8
-55 c4 -30 16 -76 28 -102 21 -49 37 -64 27 -27 -5 20 -5 20 20 3 25 -16 26
-16 18 2 -15 36 -42 119 -49 152 l-8 32 54 0 c29 0 70 3 91 6 35 6 37 5 37
-19 0 -14 4 -37 10 -52 5 -14 12 -38 15 -53 2 -15 11 -32 20 -38 8 -6 15 -15
15 -21 0 -12 59 -68 89 -83 39 -20 82 -30 75 -18 -8 12 0 10 48 -14 27 -12 28
-16 28 -87 l0 -73 -47 7 c-27 3 -75 18 -108 32 -33 13 -69 27 -80 30 -11 4
-26 14 -33 22 -10 14 -11 14 -5 -3 5 -15 3 -18 -9 -13 -12 4 -14 1 -11 -14 10
-35 123 -81 256 -104 34 -5 37 -8 37 -40 0 -29 4 -35 21 -35 17 0 20 5 17 33
l-3 32 80 16 c44 9 99 25 123 35 39 18 42 21 36 49 -6 29 -5 29 11 10 9 -11
14 -15 12 -10 -3 6 1 19 9 30 8 10 14 16 14 12 0 -3 11 5 25 19 14 14 25 30
25 36 0 7 4 7 13 1 14 -11 37 -11 37 0 0 4 0 12 0 19 0 6 -7 3 -15 -8 -13 -18
-14 -18 -8 6 3 14 11 31 17 39 6 8 -19 -14 -55 -50 -36 -35 -92 -79 -125 -96
-55 -29 -152 -63 -180 -63 -8 0 -15 26 -19 76 -8 83 -3 93 45 95 l25 1 -25 8
c-22 7 -22 8 -4 9 11 1 29 8 40 17 10 8 13 12 5 8 -8 -4 -31 -9 -52 -11 l-39
-5 0 92 c0 50 4 89 8 86 11 -7 69 50 77 75 5 15 16 19 53 19 26 0 64 -3 85 -6
45 -8 47 -23 13 -106 -13 -32 -22 -58 -20 -58 7 0 62 119 57 124 -3 2 0 13 6
23 9 16 10 14 11 -12 0 -41 -19 -105 -31 -105 -6 0 -7 -5 -4 -10 7 -11 -61
-83 -100 -108 -11 -7 -6 -6 10 2 68 32 122 112 132 197 l6 49 85 0 85 0 -8
-42 c-5 -24 -8 -55 -9 -70 -1 -14 -5 -30 -9 -34 -4 -5 -5 0 -2 11 6 16 5 17
-4 5 -17 -23 -13 -33 10 -27 13 3 19 1 16 -6 -2 -7 -13 -11 -25 -11 -12 1 -19
-3 -16 -7 11 -19 15 -61 4 -54 -5 3 -10 1 -10 -5 0 -6 -5 -8 -12 -4 -7 4 -8 3
-4 -4 12 -20 36 0 62 49 28 56 58 164 51 183 -4 10 13 15 64 19 38 3 74 9 79
12 23 14 -5 25 -65 25 -70 0 -85 11 -85 65 0 40 -28 129 -57 180 -29 53 -46
67 -37 31 4 -17 2 -26 -6 -26 -6 0 -9 4 -5 9 3 5 1 12 -4 16 -14 8 -4 -33 15
-62 25 -39 54 -132 54 -175 l0 -38 -85 0 -85 0 -1 33 c-1 23 -3 26 -6 10 -5
-28 -23 -30 -23 -3 0 43 -35 107 -83 153 -27 26 -44 47 -38 47 20 0 90 -76
117 -127 14 -27 22 -37 18 -23 -13 50 -43 97 -88 138 -43 40 -64 53 -52 33 3
-5 -1 -11 -9 -15 -11 -4 -4 -16 31 -48 52 -48 81 -98 90 -156 l6 -40 -39 -6
c-21 -4 -60 -6 -86 -4 -39 2 -49 7 -53 25 -3 12 -23 37 -45 56 l-39 36 0 85 0
85 41 -14 c38 -14 43 -14 56 2 8 10 12 13 9 7 -3 -6 1 -11 9 -11 34 0 11 17
-47 34 l-63 19 0 66 c0 37 3 70 7 73 12 12 139 -24 200 -57 54 -29 79 -30 77
-5 0 9 -2 9 -6 0 -6 -16 -33 -17 -33 -2 0 5 5 7 12 3 7 -4 8 -3 4 5 -4 6 -11
9 -16 6 -5 -3 -7 4 -5 16 4 17 2 19 -11 8 -8 -6 -18 -9 -21 -5 -4 4 -1 11 7
16 11 7 8 11 -15 20 -64 25 -122 40 -157 40 -34 0 -37 2 -40 32 -3 36 -31 51
-42 23z m-31 -75 c3 -5 1 -10 -4 -10 -6 0 -11 5 -11 10 0 6 2 10 4 10 3 0 8
-4 11 -10z m215 -25 c9 -11 16 -12 25 -5 9 8 14 6 19 -6 4 -9 5 -18 4 -19 -6
-5 -78 30 -78 37 0 13 17 9 30 -7z m-415 -53 c-3 -3 -11 0 -18 7 -9 10 -8 11
6 5 10 -3 15 -9 12 -12z m-29 -4 c4 -7 4 -10 -1 -6 -4 4 -14 3 -22 -3 -8 -8
-13 -8 -13 -1 0 6 6 13 13 15 6 3 13 6 14 6 1 1 5 -5 9 -11z m349 -108 c13 -5
14 -9 5 -9 -8 0 -24 4 -35 9 -13 5 -14 9 -5 9 8 0 24 -4 35 -9z m-342 -158
c-3 -12 -9 -22 -14 -22 -5 0 -3 11 3 25 13 30 20 28 11 -3z m305 -114 c18 -18
14 -63 -7 -82 -18 -17 -20 -17 -40 3 -27 27 -27 56 1 75 27 19 31 19 46 4z
m-123 -68 c11 -33 55 -79 70 -73 16 5 16 -23 0 -134 l-8 -51 -45 14 c-26 7
-56 11 -68 8 -12 -3 -25 -1 -28 5 -4 7 -1 8 8 5 9 -3 16 -1 16 5 0 6 -4 11 -9
11 -8 0 -89 77 -90 86 0 2 -7 17 -15 32 -8 15 -17 44 -21 64 l-7 37 63 4 c35
2 78 4 96 5 24 2 33 -3 38 -18z m-151 -406 l18 -26 -35 24 c-19 12 -33 26 -31
30 7 11 27 -1 48 -28z m89 -35 c-8 -8 -16 -8 -30 0 -16 9 -14 10 12 11 21 0
26 -3 18 -11z"/>
<path d="M13160 6455 c0 -3 11 -10 25 -15 14 -5 25 -17 25 -26 0 -14 2 -15 17
-3 15 13 15 12 4 -9 -6 -12 -9 -27 -6 -32 3 -5 1 -11 -5 -15 -6 -4 -8 -11 -5
-16 4 -5 -1 -12 -9 -15 -9 -3 -13 -10 -10 -15 3 -5 10 -7 15 -3 5 3 16 1 23
-5 11 -9 100 -41 115 -41 3 0 -4 7 -15 16 -18 14 -18 15 4 4 12 -6 22 -15 22
-21 0 -5 11 -14 25 -19 37 -14 113 -88 143 -139 19 -32 28 -41 30 -28 2 9 -4
24 -12 33 -9 8 -16 21 -16 27 0 7 -12 23 -25 36 -14 12 -22 28 -18 34 3 6 1 7
-5 3 -7 -4 -12 -2 -12 3 0 6 -6 11 -14 11 -7 0 -19 7 -26 15 -7 8 -17 12 -23
8 -6 -4 -8 0 -4 10 7 20 -4 22 -21 5 -9 -9 -12 -9 -13 3 -1 7 -1 17 0 22 0 4
-8 7 -18 7 -11 0 -22 4 -25 9 -4 5 -24 12 -46 16 -42 7 -44 12 -34 65 7 35 1
34 101 16 7 -1 16 -5 19 -9 4 -4 12 -7 18 -7 6 0 3 5 -6 11 -24 14 -12 42 12
29 12 -6 21 -7 25 -1 10 17 -95 41 -177 41 -43 0 -78 -2 -78 -5z m170 -26 c0
-6 4 -8 9 -4 5 3 12 1 16 -5 3 -5 -1 -10 -9 -10 -8 0 -18 5 -21 10 -3 6 -11
10 -16 10 -6 0 -8 -4 -5 -9 3 -4 -6 -6 -19 -3 -40 7 -37 17 6 19 22 2 39 -2
39 -8z"/>
<path d="M13083 6443 c-33 -6 -28 -23 6 -20 16 1 27 5 25 9 -2 4 6 9 18 11 21
4 21 4 -2 4 -14 0 -35 -2 -47 -4z"/>
<path d="M15930 6430 c-9 -6 -10 -10 -3 -10 6 0 15 5 18 10 8 12 4 12 -15 0z"/>
<path d="M13020 6420 c-13 -8 -13 -10 2 -10 9 0 20 5 23 10 8 13 -5 13 -25 0z"/>
<path d="M13155 6420 c-8 -13 15 -13 35 0 12 8 11 10 -7 10 -12 0 -25 -4 -28
-10z"/>
<path d="M6010 6411 c-78 -17 -153 -81 -189 -161 -20 -43 -21 -64 -21 -588 l0
-543 27 -56 c48 -97 138 -153 248 -153 82 0 145 24 192 72 70 74 77 96 88 286
l6 102 -86 0 -85 0 0 -115 c0 -114 0 -115 -31 -150 -26 -30 -38 -35 -73 -35
-40 0 -78 18 -103 50 -9 11 -12 144 -13 544 l0 528 34 34 c28 28 42 34 76 34
34 0 48 -6 76 -34 l34 -34 0 -130 0 -129 46 -7 c26 -3 62 -6 80 -6 l34 0 0
143 c0 78 -5 159 -11 180 -13 47 -68 109 -124 143 -47 27 -143 39 -205 25z"/>
<path d="M6630 6408 c0 -5 5 -18 10 -28 11 -21 -18 -262 -65 -525 -13 -77 -36
-221 -50 -320 -57 -391 -75 -489 -101 -543 -14 -29 -24 -59 -21 -66 4 -10 32
-12 119 -8 62 2 115 6 118 9 2 2 -6 23 -19 45 l-23 41 22 141 23 141 111 -5
110 -5 23 -139 23 -139 -20 -32 c-11 -18 -20 -37 -20 -44 0 -7 37 -11 120 -11
136 0 135 -1 95 77 -26 50 -37 106 -120 633 -19 124 -42 286 -50 360 -8 74
-23 186 -32 248 -13 89 -14 121 -5 144 l11 30 -82 -7 c-45 -3 -103 -2 -129 3
-30 6 -48 6 -48 0z m151 -558 c41 -311 49 -366 55 -392 l6 -28 -92 0 -92 0 6
33 c4 17 11 64 16 102 6 39 17 104 25 145 8 41 21 142 30 224 18 175 17 174
22 116 2 -25 13 -115 24 -200z"/>
<path d="M8997 6406 c-61 -22 -128 -81 -160 -141 -19 -37 -22 -62 -28 -320
-11 -448 -9 -855 4 -893 27 -74 125 -142 207 -144 l51 -1 52 -86 c60 -100 192
-237 259 -270 64 -31 142 -29 194 5 57 37 88 86 88 142 1 44 -1 47 -23 44 -13
-1 -39 -16 -58 -32 -67 -60 -154 -24 -267 109 l-74 87 34 39 c19 22 45 62 59
89 l25 50 0 560 0 561 -24 50 c-32 71 -68 109 -128 139 -59 30 -147 34 -211
12z m173 -181 l33 -34 -2 -533 c-2 -348 -6 -539 -13 -553 -6 -11 -19 -30 -30
-41 -19 -21 -22 -21 -81 -8 -38 9 -72 24 -87 40 -22 22 -25 33 -25 97 0 39 1
281 3 536 l2 463 34 34 c29 29 41 34 83 34 43 0 53 -4 83 -35z"/>
<path d="M11450 6294 l0 -125 27 3 c21 2 29 10 36 35 10 35 28 43 95 43 l44 0
-6 -621 c-6 -602 -7 -622 -26 -646 -11 -14 -20 -34 -20 -44 0 -18 10 -19 125
-19 145 0 151 4 111 73 l-26 44 0 606 0 607 60 0 c59 0 61 -1 82 -36 15 -25
27 -34 41 -32 20 3 21 9 20 117 l0 113 -119 -3 c-187 -6 -334 -5 -391 3 l-53
7 0 -125z"/>
<path d="M16780 6412 c0 -6 -6 -9 -14 -6 -17 7 -32 -14 -19 -27 6 -6 16 -2 28
11 10 11 15 23 12 27 -4 3 -7 1 -7 -5z"/>
<path d="M7854 6403 l-81 -4 -6 -62 c-4 -34 -23 -132 -42 -217 -33 -141 -107
-519 -135 -680 -6 -36 -13 -78 -17 -95 -4 -20 -23 73 -58 290 -29 176 -69 403
-90 504 -20 101 -38 201 -39 222 l-1 39 -122 0 c-112 0 -123 -2 -123 -18 0
-10 11 -29 25 -42 l25 -23 0 -651 c0 -633 -1 -652 -20 -684 -37 -60 -33 -62
100 -62 66 0 120 3 120 8 0 4 -11 29 -25 55 -24 48 -24 49 -25 375 0 180 -3
359 -5 397 -7 104 9 44 45 -170 17 -99 49 -256 71 -350 22 -93 47 -200 55
-236 l16 -67 40 -6 c47 -8 53 -2 62 58 4 22 22 104 41 181 65 264 94 400 114
539 12 76 22 140 23 142 2 1 1 -187 0 -419 l-4 -422 -24 -33 c-14 -17 -22 -37
-19 -42 4 -6 59 -10 131 -10 140 0 140 -1 99 73 l-26 45 3 641 3 640 28 28
c15 16 27 34 27 40 0 14 -25 23 -58 21 -15 -1 -63 -4 -108 -5z"/>
<path d="M9443 6393 c-3 -7 3 -25 13 -39 11 -15 25 -36 32 -48 10 -17 12 -142
10 -611 -2 -653 -5 -622 63 -700 128 -145 398 -98 475 83 14 33 16 107 14 617
-1 605 0 624 42 656 14 11 18 22 14 37 -7 20 -13 21 -122 20 -100 -1 -114 -3
-114 -18 0 -9 9 -28 21 -41 16 -18 19 -31 13 -54 -3 -16 -9 -285 -13 -597 l-6
-568 -32 -31 c-37 -37 -92 -43 -137 -14 -58 38 -57 26 -59 633 -1 306 2 586 6
622 l8 65 -111 1 c-86 1 -113 -2 -117 -13z"/>
<path d="M10173 6393 c-3 -7 7 -27 21 -46 l26 -34 0 -649 c0 -631 -1 -650 -20
-682 -39 -64 -48 -62 251 -62 l271 0 -6 23 c-3 12 -6 49 -6 83 l0 61 -165 -5
-165 -5 0 145 c0 80 3 192 6 249 l7 104 123 -4 124 -3 0 81 0 81 -47 0 c-27 0
-84 3 -128 6 l-80 7 0 244 0 244 135 -4 c74 -2 147 -7 163 -12 l27 -7 0 98 0
99 -266 0 c-198 0 -268 -3 -271 -12z"/>
<path d="M10971 6384 c-66 -33 -125 -106 -147 -180 -11 -40 -15 -85 -12 -162
3 -98 6 -114 35 -172 18 -36 73 -114 123 -175 50 -60 110 -134 134 -164 65
-80 92 -143 100 -234 10 -110 0 -161 -36 -197 -34 -34 -89 -40 -138 -15 -53
27 -60 48 -60 173 l0 114 -37 -6 c-21 -3 -59 -8 -85 -12 -35 -4 -48 -11 -49
-23 -4 -117 4 -200 25 -246 30 -65 78 -112 143 -142 152 -70 300 -18 374 132
l31 64 -4 143 c-3 114 -8 150 -22 178 -30 56 -98 147 -190 255 -46 54 -104
133 -128 174 -42 74 -43 78 -46 177 -4 114 2 135 51 164 47 29 90 26 132 -11
l35 -31 0 -99 0 -99 59 0 c32 0 72 -3 89 -6 l31 -6 -5 93 c-7 119 -26 186 -67
241 -72 96 -222 128 -336 72z"/>
<path d="M8080 6377 c0 -13 11 -33 25 -45 l25 -22 0 -640 0 -640 -27 -49 c-18
-32 -24 -53 -18 -58 6 -5 63 -7 128 -5 131 4 131 5 97 72 -18 36 -20 59 -20
263 l0 225 88 4 c132 7 218 59 271 165 20 40 21 58 21 303 0 295 -2 303 -79
373 -81 73 -97 77 -316 77 l-195 0 0 -23z m383 -159 c16 -11 33 -31 38 -45 14
-37 -1 -442 -18 -475 -24 -49 -55 -61 -128 -53 l-65 7 0 297 0 297 73 -4 c51
-3 80 -10 100 -24z"/>
<path d="M15920 6386 c0 -3 15 -12 33 -20 l32 -16 -24 20 c-21 19 -41 26 -41
16z"/>
<path d="M16725 6370 c-3 -5 -3 -10 2 -10 4 -1 -1 -6 -12 -13 -11 -7 -21 -18
-23 -25 -1 -7 10 -4 28 9 16 13 30 26 30 30 0 13 -18 20 -25 9z"/>
<path d="M12923 6365 c4 -5 -1 -18 -10 -29 -10 -12 -11 -16 -4 -9 7 6 19 10
25 9 6 -2 8 -1 3 1 -4 3 -5 9 -2 13 3 5 0 12 -7 16 -7 4 -10 3 -5 -1z"/>
<path d="M15924 6345 c8 -8 18 -15 22 -15 3 0 1 7 -6 15 -7 8 -17 15 -22 15
-5 0 -3 -7 6 -15z"/>
<path d="M16352 6353 c-1 -7 -9 -13 -17 -13 -11 0 -15 -16 -17 -67 l-3 -66
-50 -28 c-27 -15 -57 -28 -66 -28 -9 -1 -33 17 -52 38 -20 22 -48 48 -64 57
-16 10 -23 12 -15 4 6 -8 12 -18 12 -23 0 -4 -6 -5 -12 -1 -16 10 3 -16 54
-73 41 -46 43 -52 28 -102 -12 -43 -26 -52 -68 -45 -52 10 -433 -7 -397 -17
17 -5 36 -7 43 -4 6 2 12 1 12 -4 0 -5 42 -7 93 -5 50 1 138 0 195 -4 67 -5
102 -4 102 3 1 5 7 -1 15 -15 14 -24 18 -120 5 -120 -17 0 -49 -42 -43 -57 5
-12 2 -15 -9 -11 -20 8 -38 -10 -30 -30 4 -11 1 -14 -11 -9 -21 8 -55 -23 -51
-47 2 -11 -2 -16 -11 -12 -18 6 -29 -10 -14 -19 12 -8 34 10 34 28 0 7 9 12
20 12 11 0 19 6 18 13 -2 6 1 13 7 13 6 1 14 2 19 3 5 0 34 21 63 46 89 75 81
72 121 55 19 -8 38 -23 41 -33 6 -18 25 -284 26 -349 0 -18 4 -33 8 -33 11 0
37 260 29 289 -3 12 -1 19 4 15 5 -3 9 4 9 15 0 12 -4 21 -10 21 -5 0 -10 5
-10 11 0 5 5 7 10 4 6 -3 10 1 10 9 0 18 60 66 84 66 9 0 42 -27 73 -60 30
-33 62 -60 70 -60 8 0 12 -3 10 -8 -3 -4 10 -23 29 -42 19 -19 34 -29 34 -22
0 9 6 9 25 0 25 -11 29 -19 26 -48 -2 -13 -1 -13 8 0 7 10 11 11 11 3 0 -7 5
-13 10 -13 19 0 10 18 -30 56 -41 40 -68 50 -62 24 2 -8 0 -11 -4 -7 -11 11
-14 38 -3 31 20 -12 7 9 -23 39 -62 61 -113 122 -116 139 -1 10 4 31 13 47 8
17 15 40 16 53 0 13 3 17 6 11 2 -7 11 -13 19 -13 12 0 12 4 2 19 -7 11 -15
18 -19 15 -6 -4 -29 80 -29 106 0 13 28 48 119 145 42 45 34 56 -13 20 -20
-15 -36 -24 -36 -19 0 5 -27 -18 -59 -50 -49 -49 -63 -57 -74 -47 -8 6 -34 17
-58 24 l-44 13 -6 84 c-3 47 -6 79 -7 73z m63 -226 c69 -38 98 -131 63 -196
-14 -25 -37 -44 -76 -64 -69 -34 -76 -34 -127 1 -73 50 -104 163 -60 212 61
69 132 85 200 47z m-265 -321 c0 -2 -9 -6 -20 -9 -11 -3 -18 -1 -14 4 5 9 34
13 34 5z m-57 -51 c4 -8 1 -17 -5 -21 -7 -4 -8 -3 -4 4 4 7 2 12 -4 12 -6 0
-8 5 -5 10 8 14 12 13 18 -5z m-46 -40 c0 -8 -4 -15 -9 -15 -10 0 -11 14 -1
23 9 10 10 9 10 -8z"/>
<path d="M16281 6054 c-18 -15 -31 -35 -31 -48 0 -29 56 -113 80 -121 24 -8
75 19 95 49 14 21 14 28 -1 65 -19 47 -56 81 -90 81 -12 0 -36 -12 -53 -26z
m89 -59 c36 -59 0 -108 -47 -64 -29 29 -30 44 0 25 13 -9 28 -12 36 -7 10 6 4
12 -22 22 -54 19 -62 59 -12 59 16 0 30 -11 45 -35z"/>
<path d="M13560 6349 c0 -10 60 -72 65 -68 2 3 -11 21 -30 39 -19 19 -35 32
-35 29z"/>
<path d="M15989 6313 c5 -25 6 -26 9 -6 3 21 4 21 21 5 10 -9 16 -20 15 -23
-2 -3 3 -6 11 -6 10 0 6 10 -12 28 -36 37 -52 37 -44 2z"/>
<path d="M12844 6298 l-19 -23 23 19 c21 18 27 26 19 26 -2 0 -12 -10 -23 -22z"/>
<path d="M16870 6315 c0 -5 5 -17 10 -25 5 -8 10 -10 10 -5 0 6 -5 17 -10 25
-5 8 -10 11 -10 5z"/>
<path d="M4825 6290 c3 -5 8 -10 11 -10 2 0 4 5 4 10 0 6 -5 10 -11 10 -5 0
-7 -4 -4 -10z"/>
<path d="M4886 6292 c-3 -5 1 -9 9 -9 8 0 12 4 9 9 -3 4 -7 8 -9 8 -2 0 -6 -4
-9 -8z"/>
<path d="M12800 6245 c-7 -9 -11 -17 -9 -20 3 -2 10 5 17 15 14 24 10 26 -8 5z"/>
<path d="M16900 6245 c0 -5 5 -17 10 -25 5 -8 10 -10 10 -5 0 6 -5 17 -10 25
-5 8 -10 11 -10 5z"/>
<path d="M4325 6230 c-3 -6 1 -7 9 -4 18 7 21 14 7 14 -6 0 -13 -4 -16 -10z"/>
<path d="M4070 6199 c0 -11 4 -18 10 -14 5 3 7 12 3 20 -7 21 -13 19 -13 -6z"/>
<path d="M13670 6200 c0 -17 17 -47 23 -40 2 3 -2 16 -10 30 -7 14 -13 18 -13
10z"/>
<path d="M4300 6180 c0 -5 5 -10 10 -10 6 0 10 5 10 10 0 6 -4 10 -10 10 -5 0
-10 -4 -10 -10z"/>
<path d="M2875 6159 c160 -3 394 -6 520 -6 l230 1 -185 7 c-102 3 -336 6 -520
6 l-335 -1 290 -7z"/>
<path d="M4046 6158 c3 -5 10 -6 15 -3 13 9 11 12 -6 12 -8 0 -12 -4 -9 -9z"/>
<path d="M14222 6164 c9 -8 812 -13 903 -4 46 4 -131 8 -414 8 -272 1 -492 -1
-489 -4z"/>
<path d="M16936 6103 c3 -32 9 -59 14 -61 4 -2 5 -12 2 -24 -4 -18 -10 -20
-58 -15 -49 5 -54 4 -54 -14 0 -14 7 -19 29 -19 17 0 33 5 36 10 4 6 15 8 25
5 19 -6 57 24 43 34 -4 3 -9 29 -9 58 -1 33 -8 58 -18 69 -15 15 -16 12 -10
-43z"/>
<path d="M13680 6140 c0 -5 5 -10 10 -10 6 0 10 5 10 10 0 6 -4 10 -10 10 -5
0 -10 -4 -10 -10z"/>
<path d="M12731 6109 c-14 -39 -15 -72 -2 -49 9 17 23 80 17 80 -2 0 -9 -14
-15 -31z"/>
<path d="M15073 6113 c26 -2 67 -2 90 0 23 2 2 3 -48 3 -49 0 -68 -1 -42 -3z"/>
<path d="M13090 6059 c0 -11 4 -18 9 -15 5 4 7 -2 5 -12 -4 -11 16 -38 60 -82
69 -68 83 -97 44 -85 -22 7 -43 26 -51 49 -3 7 -11 5 -22 -5 -20 -19 -37 -87
-24 -95 5 -3 50 -2 99 2 86 6 91 5 123 -19 28 -21 35 -23 51 -12 17 13 16 17
-18 68 -37 55 -44 81 -26 92 6 3 10 12 10 18 0 7 -5 4 -11 -6 -6 -9 -16 -14
-22 -11 -7 4 -9 4 -5 0 10 -12 -13 -66 -28 -66 -8 0 -18 8 -21 18 -4 9 -17 34
-30 55 -25 40 -25 67 2 67 8 0 15 6 15 14 0 8 8 17 18 20 19 7 38 4 35 -5 -1
-3 5 -6 13 -6 11 0 11 4 -3 19 -20 22 -81 24 -109 3 -25 -19 -60 -19 -68 0 -9
23 -46 19 -46 -6z m153 5 c-7 -3 -9 -13 -6 -22 6 -14 5 -15 -9 -2 -16 15 -7
31 17 29 6 0 5 -3 -2 -5z"/>
<path d="M15530 6061 c-20 -6 -25 -14 -26 -41 -1 -19 -4 -49 -8 -66 -6 -28 -4
-32 23 -43 64 -27 105 4 83 61 -8 21 -9 34 -2 36 20 7 10 43 -16 52 -14 6 -26
10 -27 9 -1 -1 -13 -4 -27 -8z m45 -41 c4 -6 1 -9 -7 -8 -7 2 -12 -3 -10 -11
15 -69 15 -71 -6 -71 -22 0 -34 38 -20 64 6 10 5 16 -2 16 -6 0 -8 5 -5 10 8
13 42 13 50 0z"/>
<path d="M17097 6053 c-11 -11 -8 -51 5 -59 6 -4 14 -2 16 4 2 7 13 12 23 12
17 0 20 -6 17 -32 -3 -31 -28 -53 -28 -24 0 24 -22 31 -37 11 -20 -28 -16 -44
13 -56 19 -6 37 -6 60 1 31 11 32 13 36 73 2 34 2 65 0 70 -4 9 -96 10 -105 0z"/>
<path d="M13563 6036 c4 -10 7 -24 7 -32 0 -8 4 -14 9 -14 11 0 1 49 -12 57
-7 4 -8 0 -4 -11z"/>
<path d="M14636 6043 c-4 -5 -13 -8 -19 -8 -18 0 -20 -60 -3 -74 13 -11 16 -7
22 28 7 43 18 59 29 42 6 -10 -7 -40 -51 -121 -13 -24 -24 -38 -24 -30 0 7 -2
11 -5 8 -9 -9 7 -38 21 -38 14 0 18 10 15 40 -1 8 5 5 12 -8 7 -12 16 -19 20
-15 15 14 47 13 47 -2 0 -8 5 -15 10 -15 18 0 10 42 -11 59 -18 14 -20 21 -10
39 17 31 14 89 -5 96 -21 8 -39 8 -48 -1z"/>
<path d="M2829 6023 c-26 -4 -26 -5 -23 -81 l3 -77 36 -3 c20 -2 35 1 35 7 0
6 -6 10 -12 9 -8 -2 -14 11 -16 35 -3 30 0 37 15 38 14 0 15 2 3 6 -16 6 -30
23 -30 36 0 12 38 8 43 -5 3 -7 6 -1 6 15 1 28 -2 29 -60 20z"/>
<path d="M14416 5965 c5 -43 3 -69 -5 -79 -9 -10 -8 -16 3 -25 18 -15 52 -10
48 8 -1 7 2 10 8 6 5 -3 10 -1 10 4 0 6 -5 11 -11 11 -9 0 -10 20 -5 70 l6 70
-30 0 -31 0 7 -65z"/>
<path d="M464 6010 c-28 -11 -32 -25 -25 -85 6 -48 8 -50 44 -59 52 -13 62 0
62 82 l0 67 -30 2 c-16 1 -39 -2 -51 -7z m46 -47 c0 -40 -11 -74 -21 -67 -10
6 -12 77 -2 87 14 14 23 6 23 -20z"/>
<path d="M3220 5951 c0 -50 4 -72 16 -81 21 -18 68 -1 72 25 3 16 1 18 -9 8
-7 -7 -21 -13 -31 -13 -15 0 -18 9 -18 65 0 51 -3 65 -15 65 -12 0 -15 -14
-15 -69z"/>
<path d="M16800 6011 c0 -7 -24 -11 -59 -11 -87 0 -82 -15 5 -16 56 -1 74 2
74 12 0 7 -4 16 -10 19 -5 3 -10 1 -10 -4z"/>
<path d="M2024 5979 c3 -17 6 -47 6 -65 0 -31 3 -34 29 -34 15 0 40 9 55 21
21 17 26 29 26 65 l0 44 -61 0 -61 0 6 -31z m65 -16 c0 -5 -4 -17 -9 -28 -8
-18 -9 -17 -9 8 -1 15 4 27 9 27 6 0 10 -3 9 -7z"/>
<path d="M2954 5996 c-11 -29 1 -51 29 -54 16 -2 25 -8 21 -14 -4 -6 0 -14 7
-19 27 -16 -4 -30 -34 -14 -26 13 -28 13 -25 -3 5 -26 62 -28 88 -2 20 20 20
21 3 45 -10 13 -27 28 -38 34 -19 9 -19 10 3 10 13 1 22 7 22 16 0 20 -68 21
-76 1z"/>
<path d="M12865 6000 c-3 -5 -1 -10 4 -10 6 0 11 -4 11 -10 0 -5 -10 -10 -21
-10 -16 0 -20 -5 -16 -20 3 -12 1 -18 -5 -14 -6 4 -8 -1 -5 -12 3 -11 10 -42
17 -69 10 -44 14 -51 36 -51 30 0 32 28 4 56 -12 12 -15 20 -7 20 9 0 11 18 9
65 -3 61 -12 79 -27 55z"/>
<path d="M16594 5993 c13 -13 20 -15 23 -5 8 20 25 13 18 -8 -4 -12 -2 -20 5
-20 6 0 8 5 5 10 -3 6 -2 10 4 10 6 0 8 7 5 15 -4 9 -19 15 -42 15 -35 0 -36
-1 -18 -17z"/>
<path d="M3080 5985 c0 -8 5 -15 10 -15 6 0 10 7 10 15 0 8 -4 15 -10 15 -5 0
-10 -7 -10 -15z"/>
<path d="M12710 5941 c0 -22 5 -43 11 -47 7 -4 9 0 5 13 -6 18 -2 20 33 17 37
-2 39 -1 28 17 -6 10 -22 19 -34 19 -13 0 -23 5 -23 10 0 6 -4 10 -10 10 -5 0
-10 -18 -10 -39z"/>
<path d="M13695 5973 c6 -4 10 -14 10 -20 0 -7 5 -13 10 -13 19 0 10 35 -10
38 -11 2 -16 0 -10 -5z"/>
<path d="M15050 5959 c0 -5 -4 -8 -9 -4 -5 3 -13 1 -16 -5 -4 -7 23 -10 84 -8
90 3 113 10 69 22 -38 10 -128 7 -128 -5z"/>
<path d="M15888 5963 c6 -2 18 -2 25 0 6 3 1 5 -13 5 -14 0 -19 -2 -12 -5z"/>
<path d="M2508 5946 c-8 -8 -23 -16 -34 -19 -17 -4 -16 -5 3 -6 26 -1 73 18
73 31 0 13 -27 9 -42 -6z"/>
<path d="M3533 5945 c0 -12 13 -15 60 -15 78 0 74 24 -5 28 -44 2 -55 0 -55
-13z"/>
<path d="M14085 5951 l90 -5 -90 -6 -90 -7 103 1 c59 1 103 5 105 11 1 6 -38
10 -103 11 l-105 0 90 -5z"/>
<path d="M3079 5909 c-10 -6 -7 -9 11 -10 17 -1 19 -3 8 -6 -26 -7 -22 -25 4
-21 13 2 24 10 26 19 3 19 -29 31 -49 18z"/>
<path d="M14490 5876 c0 -31 6 -34 13 -6 3 11 1 23 -4 26 -5 3 -9 -6 -9 -20z"/>
<path d="M12731 5830 c0 -8 4 -22 9 -30 12 -18 12 -2 0 25 -6 13 -9 15 -9 5z"/>
<path d="M13527 5760 c-10 -17 -15 -35 -11 -42 4 -6 3 -8 -3 -5 -5 4 -23 -8
-39 -25 -16 -17 -23 -28 -16 -24 7 4 12 1 12 -7 0 -9 13 -2 36 19 29 26 37 41
39 73 1 23 2 41 1 41 -1 0 -10 -14 -19 -30z"/>
<path d="M12890 5771 c0 -6 4 -13 10 -16 6 -3 7 1 4 9 -7 18 -14 21 -14 7z"/>
<path d="M14073 5773 c9 -2 23 -2 30 0 6 3 -1 5 -18 5 -16 0 -22 -2 -12 -5z"/>
<path d="M15003 5773 c54 -2 139 -2 190 0 51 1 7 3 -98 3 -104 0 -146 -2 -92
-3z"/>
<path d="M13563 5763 c-15 -5 -17 -23 -4 -23 5 0 11 7 15 15 3 8 4 15 3 14 -1
0 -8 -3 -14 -6z"/>
<path d="M12930 5741 c0 -14 9 -25 27 -32 19 -7 23 -13 15 -21 -15 -15 43 -69
61 -55 2 1 10 -3 18 -10 29 -23 102 -35 169 -27 l65 8 -70 6 c-87 7 -182 50
-242 110 -37 36 -43 39 -43 21z"/>
<path d="M12757 5729 c4 -13 8 -18 11 -10 2 7 -1 18 -6 23 -8 8 -9 4 -5 -13z"/>
<path d="M920 5728 c0 -9 5 -20 10 -23 13 -8 13 5 0 25 -8 13 -10 13 -10 -2z"/>
<path d="M4030 5713 c0 -12 5 -25 10 -28 6 -4 7 -12 3 -18 -4 -7 1 -6 10 2 10
8 21 10 25 6 4 -4 1 -10 -6 -12 -19 -7 -4 -23 21 -23 15 0 29 -11 42 -32 10
-18 20 -27 23 -20 4 14 -47 78 -60 74 -5 -1 -7 2 -4 6 3 5 -3 17 -14 27 -11
10 -20 14 -20 10 0 -5 -7 0 -15 11 -14 19 -14 19 -15 -3z"/>
<path d="M1605 5699 c-4 -6 -5 -12 -2 -15 2 -3 7 2 10 11 7 17 1 20 -8 4z"/>
<path d="M13586 5642 c-3 -5 1 -9 9 -9 8 0 12 4 9 9 -3 4 -7 8 -9 8 -2 0 -6
-4 -9 -8z"/>
<path d="M16696 5627 c3 -10 9 -15 12 -12 3 3 0 11 -7 18 -10 9 -11 8 -5 -6z"/>
<path d="M13530 5589 c-22 -19 -27 -27 -15 -23 11 4 25 11 31 15 6 5 13 7 15
4 3 -2 5 5 5 15 0 11 0 20 -1 20 0 -1 -16 -14 -35 -31z"/>
<path d="M13606 5603 c-6 -14 -5 -15 5 -6 7 7 10 15 7 18 -3 3 -9 -2 -12 -12z"/>
<path d="M12880 5565 c19 -19 36 -35 39 -35 3 0 -10 16 -29 35 -19 19 -36 35
-39 35 -3 0 10 -16 29 -35z"/>
<path d="M4120 5565 c13 -14 25 -23 28 -21 4 5 -35 46 -45 46 -3 0 4 -11 17
-25z"/>
<path d="M4173 5575 c0 -8 4 -15 9 -15 4 0 8 4 8 9 0 6 -4 12 -8 15 -5 3 -9
-1 -9 -9z"/>
<path d="M13580 5569 c0 -5 5 -7 10 -4 6 3 10 8 10 11 0 2 -4 4 -10 4 -5 0
-10 -5 -10 -11z"/>
<path d="M4820 5555 c0 -9 6 -12 15 -9 8 4 12 10 9 15 -8 14 -24 10 -24 -6z"/>
<path d="M794 5534 c-18 -14 -18 -15 4 -4 12 6 22 13 22 15 0 8 -5 6 -26 -11z"/>
<path d="M4160 5541 c0 -6 4 -13 10 -16 6 -3 7 1 4 9 -7 18 -14 21 -14 7z"/>
<path d="M13219 5520 c-1 -16 -2 -36 -3 -42 0 -7 -11 -23 -23 -34 l-21 -21 86
2 c57 1 99 8 122 19 33 16 33 17 6 11 -27 -6 -28 -5 -15 11 13 16 12 17 -13
12 -15 -3 -25 -1 -22 3 7 12 -7 11 -46 -2 -27 -10 -30 -13 -16 -21 20 -11 21
-28 0 -28 -8 0 -12 5 -9 10 3 6 -1 10 -9 10 -12 0 -16 11 -16 50 0 53 -19 71
-21 20z m120 -66 c10 -9 -35 -3 -49 6 -11 8 -7 9 15 4 17 -4 32 -8 34 -10z"/>
<path d="M13538 5543 c7 -3 16 -2 19 1 4 3 -2 6 -13 5 -11 0 -14 -3 -6 -6z"/>
<path d="M13010 5476 c59 -25 108 -42 100 -33 -7 7 -135 57 -146 57 -5 -1 16
-11 46 -24z"/>
<path d="M16874 5486 c-8 -9 -8 -17 1 -30 8 -10 16 -13 19 -7 6 9 76 -58 76
-73 0 -16 -21 -3 -34 22 -17 32 -46 40 -38 10 7 -29 67 -71 91 -63 37 11 34
36 -11 83 -54 55 -89 74 -104 58z"/>
<path d="M15741 5471 c-7 -5 -11 -14 -7 -19 9 -15 36 -4 36 14 0 16 -9 18 -29
5z"/>
<path d="M13128 5433 c7 -3 16 -2 19 1 4 3 -2 6 -13 5 -11 0 -14 -3 -6 -6z"/>
<path d="M15668 5394 c-11 -23 -10 -29 11 -45 32 -26 57 -24 77 6 19 29 16 35
-15 38 -11 1 -23 7 -25 14 -9 22 -36 14 -48 -13z"/>
<path d="M16325 5297 c-16 -39 -20 -107 -7 -107 5 0 17 8 26 19 15 17 15 20 2
34 -12 11 -13 22 -6 48 13 46 3 50 -15 6z"/>
<path d="M16371 5236 c2 -25 6 -46 11 -46 12 0 10 78 -3 85 -6 5 -9 -9 -8 -39z"/>
<path d="M13195 4840 c-3 -4 -14 -50 -25 -102 -26 -127 -75 -342 -105 -463
-14 -55 -38 -165 -55 -245 -47 -231 -114 -552 -180 -860 -33 -157 -65 -310
-70 -340 -12 -68 -67 -332 -80 -380 -5 -19 -17 -75 -26 -125 -15 -86 -49 -225
-93 -385 -12 -41 -21 -80 -21 -87 0 -10 67 -13 315 -13 l315 0 0 -309 0 -310
-547 -3 c-302 -2 -549 -3 -550 -3 -1 0 -4 123 -6 272 l-5 273 219 0 c205 0
220 1 215 18 -3 9 -17 69 -31 132 -14 63 -30 133 -35 155 -25 99 -121 576
-124 621 -3 27 -12 66 -21 87 -9 22 -30 103 -46 180 -17 78 -41 180 -54 227
-12 47 -37 148 -55 225 -31 136 -85 377 -95 423 -3 12 -12 22 -20 22 -8 0 -15
-1 -15 -3 0 -23 -29 -151 -60 -262 -50 -183 -129 -524 -169 -735 -10 -52 -26
-126 -35 -165 -27 -113 -72 -323 -106 -495 -22 -114 -77 -366 -86 -398 l-7
-24 219 3 219 3 3 -274 2 -275 -392 -3 c-216 -1 -429 0 -473 3 l-80 6 3 54 c3
45 1 55 -16 64 -16 8 -24 5 -43 -15 -13 -14 -33 -44 -44 -67 -15 -33 -26 -43
-48 -45 -32 -4 -33 -20 9 192 13 65 24 141 24 167 0 42 -3 49 -19 49 -45 0
-99 -125 -151 -347 -7 -29 -17 -53 -23 -53 -9 0 -12 76 -14 280 -1 293 -11
392 -46 468 -47 102 -59 25 -63 -398 -2 -173 -4 -323 -6 -332 -5 -34 -17 -18
-23 30 -4 26 -11 72 -16 102 -14 76 -46 280 -59 370 -6 42 -19 105 -29 140
l-18 65 -18 -60 c-23 -76 -24 -342 -2 -490 9 -55 16 -107 16 -115 0 -8 2 -25
6 -36 5 -15 2 -23 -9 -27 -23 -9 -46 2 -46 23 0 35 -118 255 -163 303 -49 53
-74 59 -83 22 -6 -26 5 -64 72 -237 19 -48 34 -95 34 -104 0 -26 -60 -9 -90
25 -15 17 -39 30 -59 33 l-33 5 5 -39 5 -38 -273 0 -274 0 -14 30 c-9 16 -13
40 -11 52 4 21 4 22 -5 3 -5 -11 -10 -14 -10 -7 -1 15 -30 47 -36 40 -3 -2 4
-22 15 -44 25 -49 39 -126 42 -224 3 -75 3 -75 -24 -78 -14 -2 -46 6 -70 17
-24 11 -57 23 -73 27 -36 9 -52 23 -52 47 0 13 9 17 39 17 22 0 48 -5 59 -10
23 -13 23 -10 8 130 -11 94 -22 122 -32 83 -4 -15 -5 -15 -6 -2 -1 15 -13 14
-113 -8 -99 -21 -300 -37 -313 -25 -6 6 17 28 97 88 142 107 250 231 319 366
25 49 65 177 78 252 44 243 -42 533 -247 835 -42 63 -81 113 -87 111 -5 -2
-18 -58 -28 -124 -18 -128 -31 -177 -55 -213 -24 -38 -28 -27 -20 55 10 101
12 294 3 357 -40 286 -230 610 -501 857 -155 140 -310 262 -327 255 -9 -3 -10
-36 -4 -138 14 -244 -19 -423 -118 -641 -70 -153 -179 -361 -211 -403 -13 -18
-24 -37 -24 -43 0 -6 -3 -12 -7 -14 -12 -5 -114 -135 -160 -203 -146 -217
-209 -439 -184 -644 39 -312 165 -515 420 -675 29 -19 40 -31 32 -36 -7 -4
-11 -11 -9 -16 4 -11 -41 -21 -102 -24 l-45 -2 45 -15 c25 -9 53 -21 63 -28
16 -11 13 -15 -28 -34 l-46 -22 -67 21 c-37 11 -89 29 -117 39 -27 11 -62 22
-77 25 -19 4 -28 13 -28 26 0 24 14 25 135 5 100 -16 121 -18 112 -9 -9 9
-260 54 -266 48 -3 -3 -7 -85 -8 -182 l-2 -177 -29 -3 c-40 -4 -51 13 -64 105
-10 67 -9 90 4 143 14 58 14 61 -1 42 -16 -21 -20 -21 -746 -24 l-730 -3 -2
270 -2 270 210 -3 c178 -2 209 -1 209 12 0 8 -12 68 -26 133 -14 65 -43 208
-65 318 -21 110 -46 220 -55 245 -8 25 -24 90 -34 145 -10 55 -33 165 -50 245
-111 512 -154 721 -174 838 -31 180 -38 184 -66 45 -10 -48 -53 -225 -95 -393
-87 -347 -140 -579 -154 -671 -6 -35 -22 -111 -35 -169 -23 -92 -55 -237 -111
-500 -9 -41 -25 -110 -36 -154 -10 -43 -19 -83 -19 -89 0 -6 73 -8 210 -5
l210 5 0 -273 0 -274 -120 0 -119 0 -3 86 c-2 69 -6 89 -20 98 -28 17 -47 -11
-62 -93 -13 -70 -28 -95 -51 -88 -6 2 -12 68 -15 158 -4 126 -8 160 -23 182
-19 29 -25 31 -47 17 -12 -7 -16 -42 -20 -167 -3 -87 -8 -163 -12 -169 -4 -7
-16 -14 -27 -17 -18 -4 -21 2 -26 52 -9 91 -56 279 -72 293 -40 33 -54 -76
-33 -267 4 -44 7 -82 5 -83 -2 -2 -19 -5 -38 -6 l-35 -1 -5 61 c-7 75 -30 135
-59 153 -17 11 -22 11 -29 -1 -10 -16 -11 -106 0 -168 l7 -45 -150 3 c-83 2
-152 4 -153 5 -1 1 -3 139 -5 307 l-3 305 308 -3 c169 -2 307 -1 307 2 0 2
-16 75 -36 163 -20 87 -46 205 -59 263 -12 58 -39 177 -59 265 -39 172 -135
620 -167 775 -11 52 -37 174 -59 270 -60 262 -86 382 -140 635 -127 598 -137
635 -154 607 -3 -6 -13 -47 -22 -93 -8 -45 -47 -215 -85 -378 -73 -308 -140
-606 -189 -846 -38 -182 -166 -746 -226 -995 -25 -107 -50 -215 -55 -240 -13
-65 -19 -81 -29 -75 -26 16 -78 215 -140 540 -16 83 -45 218 -64 300 -19 83
-51 233 -71 335 -20 102 -48 232 -62 290 -13 58 -44 202 -68 320 -24 118 -55
262 -68 320 -14 58 -42 187 -63 287 -20 100 -41 188 -45 195 -14 22 -25 -2
-39 -82 -7 -41 -20 -106 -30 -145 -69 -265 -159 -627 -164 -660 -11 -60 -89
-423 -141 -650 -25 -110 -61 -272 -80 -360 -31 -145 -51 -230 -132 -570 -34
-142 -63 -223 -74 -204 -12 22 -56 204 -79 325 -55 294 -83 440 -106 554 -48
234 -153 744 -193 935 -22 105 -63 305 -91 445 -54 276 -86 424 -94 447 -10
26 -24 4 -36 -55 -12 -60 -68 -302 -125 -542 -19 -80 -51 -221 -71 -315 -20
-93 -52 -242 -70 -330 -19 -88 -43 -202 -54 -253 -11 -52 -17 -99 -13 -104 3
-7 1 -8 -5 -4 -6 4 -11 -1 -11 -11 1 -10 -18 -96 -40 -190 -22 -95 -38 -180
-34 -190 4 -9 2 -14 -3 -10 -6 3 -22 -52 -38 -126 -15 -73 -32 -150 -37 -172
-4 -22 -18 -87 -30 -145 -11 -58 -30 -133 -41 -167 -11 -34 -17 -67 -13 -73 3
-5 2 -10 -3 -10 -6 0 -14 -17 -20 -37 l-9 -38 -18 40 c-17 38 -59 241 -140
680 -21 110 -57 288 -81 395 -23 107 -50 236 -59 285 -9 50 -32 162 -50 250
-39 183 -132 659 -141 723 -4 23 -10 45 -15 47 -4 3 -15 -30 -24 -72 -10 -43
-34 -145 -56 -228 -72 -282 -168 -710 -254 -1135 -47 -234 -103 -495 -125
-580 -22 -85 -60 -243 -85 -350 -25 -107 -49 -210 -54 -227 -7 -24 -6 -33 2
-34 7 -1 128 -1 269 1 l257 2 3 -141 3 -141 -157 0 c-87 0 -158 -4 -158 -8 0
-5 -18 -14 -40 -21 -54 -16 -54 -41 0 -41 27 0 40 -4 40 -14 0 -18 -45 -26
-150 -26 -84 0 -88 -1 -133 -36 -51 -40 -81 -84 -97 -144 l-11 -40 -159 0
-160 0 0 -610 0 -610 8820 0 8820 0 0 615 0 615 -197 1 c-183 1 -395 12 -348
19 74 10 109 21 94 31 -10 6 -11 9 -1 9 6 0 12 11 12 24 0 15 7 26 18 29 16 4
16 5 0 6 -28 2 -21 21 8 21 14 0 23 -4 20 -9 -3 -4 38 -11 92 -15 64 -4 98 -3
100 4 2 5 21 10 43 10 21 0 39 5 39 10 0 6 8 10 18 10 25 0 52 58 41 87 -4 12
-9 46 -11 75 -3 46 -6 53 -25 56 -19 3 -23 10 -23 39 0 26 -4 34 -14 30 -8 -3
-20 0 -26 8 -6 8 -18 11 -26 8 -10 -4 -14 3 -14 25 0 35 -29 92 -47 92 -7 0
-13 7 -13 16 0 12 -7 15 -25 12 -19 -4 -23 -2 -15 7 5 6 7 24 3 41 -3 16 -6
38 -6 49 -1 11 -4 22 -8 25 -8 6 -42 143 -64 260 -9 47 -22 110 -30 140 -8 30
-16 64 -18 75 -1 11 -6 26 -11 33 -4 7 -9 34 -10 60 -1 26 -7 57 -14 69 -7 13
-8 24 -3 27 5 4 12 0 14 -6 4 -8 6 -7 6 3 1 9 8 19 16 23 8 3 15 14 15 25 0
11 5 23 10 26 6 3 10 19 10 35 0 16 7 35 14 43 10 10 15 35 15 77 -1 48 3 65
18 76 17 14 16 15 -12 9 -20 -4 -25 -3 -16 4 8 5 10 14 6 21 -5 9 -4 11 4 6 6
-4 23 -1 36 8 14 9 46 16 75 16 l50 0 0 -70 c0 -63 2 -70 20 -70 17 0 20 7 20
40 0 33 3 40 20 40 11 0 20 -7 20 -15 0 -11 11 -15 39 -15 25 0 41 5 45 15 4
12 -4 15 -39 15 -47 0 -56 11 -30 36 8 9 15 22 15 30 0 8 -7 14 -15 14 -8 0
-15 9 -15 19 0 14 8 21 28 23 24 3 27 7 29 46 2 47 2 47 -36 27 -16 -8 -30
-13 -32 -12 -2 1 2 -3 9 -10 9 -7 10 -13 2 -18 -5 -3 -8 -10 -5 -15 3 -4 -2
-11 -11 -14 -28 -11 -35 -7 -24 13 5 11 10 22 10 24 0 9 -45 0 -70 -13 -14 -8
-29 -13 -33 -12 -5 1 -17 -8 -27 -20 -13 -17 -15 -25 -7 -31 8 -6 6 -7 -5 -3
-10 3 -20 1 -23 -3 -3 -5 -27 -14 -54 -21 -35 -8 -51 -17 -54 -32 -4 -12 -10
-17 -17 -13 -7 4 -15 4 -19 -1 -3 -5 -23 -17 -43 -26 -42 -20 -41 -21 -53 62
-4 25 -26 133 -50 240 -85 378 -116 520 -135 627 -11 59 -35 173 -54 253 -19
80 -44 191 -57 248 -34 154 -57 172 -78 60 -7 -35 -34 -144 -61 -243 -27 -99
-70 -274 -95 -390 -96 -442 -116 -536 -155 -730 -22 -110 -54 -267 -71 -350
-37 -183 -103 -456 -122 -510 -14 -37 -15 -38 -20 -15 -3 14 -15 66 -26 115
-11 50 -36 164 -55 255 -19 91 -49 221 -65 290 -31 130 -86 388 -102 475 -5
28 -24 118 -43 200 -20 83 -54 238 -76 345 -46 220 -66 314 -166 765 -15 66
-30 126 -33 133 -4 7 -24 -68 -45 -166 -20 -98 -46 -204 -57 -237 -10 -32 -26
-95 -35 -139 -9 -45 -29 -137 -46 -206 -17 -69 -31 -148 -32 -177 -2 -29 -9
-59 -16 -67 -7 -10 -10 -26 -6 -42 4 -14 3 -23 -2 -20 -10 6 -65 -254 -56
-263 3 -3 9 1 14 9 7 10 10 11 10 3 0 -8 13 -13 30 -13 31 0 41 -16 15 -26 -8
-4 -13 -10 -10 -14 8 -12 -20 -19 -36 -9 -21 13 -25 11 -37 -16 -20 -43 -14
-59 38 -110 28 -27 48 -56 45 -63 -3 -7 0 -10 6 -7 14 9 39 -13 33 -29 -3 -8
2 -20 10 -29 10 -9 13 -23 9 -33 -6 -16 -5 -17 9 -4 15 14 14 17 -5 39 l-22
24 21 -13 c12 -8 29 -27 39 -43 9 -16 30 -34 45 -41 23 -9 25 -13 14 -24 -12
-11 -15 -10 -21 3 -5 14 -8 14 -15 3 -8 -10 -9 -10 -5 2 2 8 -5 24 -16 35 -20
20 -20 20 -14 -2 5 -24 -7 -31 -19 -12 -4 6 -13 -1 -24 -18 -9 -15 -13 -31 -8
-34 5 -3 0 -13 -11 -23 -23 -21 -57 -14 -65 12 -3 9 -3 -5 0 -33 3 -27 10 -51
15 -53 15 -6 10 -52 -7 -69 -11 -12 -18 -13 -27 -4 -6 6 -21 11 -34 11 -25 0
-25 -1 -24 85 1 46 -1 57 -9 45 -9 -12 -10 -6 -5 22 3 20 1 39 -4 43 -6 3 -8
13 -5 23 3 9 -2 5 -10 -9 -9 -15 -19 -53 -22 -85 -4 -33 -11 -65 -17 -72 -7
-9 -6 -11 8 -6 15 6 16 4 6 -14 -8 -15 -8 -22 2 -26 6 -4 2 -4 -9 -2 -18 3
-23 -2 -28 -27 -4 -20 -2 -34 6 -39 7 -4 9 -8 4 -8 -6 0 -1 -6 9 -14 11 -8 24
-12 29 -8 5 3 1 9 -10 13 -16 6 -14 8 9 8 30 1 61 -21 49 -34 -4 -4 0 -6 8 -3
10 3 14 14 12 32 -3 19 0 26 7 22 6 -4 11 -14 11 -22 0 -8 5 -12 10 -9 10 6
41 -18 40 -30 0 -3 7 -20 15 -38 12 -23 12 -27 2 -14 -18 21 -31 21 -67 0 -24
-14 -27 -20 -19 -36 6 -10 8 -25 5 -32 -3 -8 0 -17 6 -21 7 -5 8 -2 3 6 -6 9
-4 11 4 6 7 -5 10 -13 8 -20 -5 -11 17 -38 25 -30 3 2 5 -2 5 -10 0 -12 -3
-12 -22 0 -19 13 -24 13 -34 0 -9 -11 -9 -15 1 -19 8 -3 6 -6 -5 -6 -10 -1
-17 5 -16 12 3 27 -2 34 -24 30 -21 -4 -24 0 -33 44 -9 47 -29 63 -46 38 -5
-6 -8 -3 -8 7 0 9 5 18 11 20 15 5 21 76 8 84 -6 3 -12 4 -14 2 -4 -4 -36
-162 -61 -298 -9 -52 -21 -103 -26 -114 -6 -10 -10 -44 -10 -75 0 -31 -2 -50
-5 -43 -3 6 -9 10 -14 6 -18 -11 -9 -20 20 -19 19 0 27 4 24 12 -3 7 0 13 6
13 6 0 10 -3 10 -7 -1 -5 -1 -18 0 -30 1 -20 5 -22 33 -16 31 6 31 6 25 -25
-6 -30 -5 -32 23 -32 17 0 30 -4 30 -10 0 -5 11 -10 25 -10 14 0 25 6 25 13 0
8 4 7 10 -3 8 -12 13 -13 30 -2 32 19 38 15 42 -33 3 -37 0 -45 -14 -45 -28 0
-29 -16 -3 -28 27 -13 32 -27 13 -35 -7 -3 -3 -6 9 -6 12 -1 24 -9 28 -20 3
-10 15 -21 27 -24 14 -4 19 -11 14 -22 -4 -10 2 -19 17 -25 12 -5 17 -9 11 -9
-7 -1 -15 -8 -18 -17 -5 -14 2 -15 51 -12 32 1 62 8 66 13 5 6 6 -55 3 -135
-3 -80 -6 -183 -6 -230 l0 -85 -20 25 -20 25 -1 -25 -1 -25 -7 24 c-6 21 -13
24 -61 26 -58 3 -82 -7 -74 -30 3 -7 1 -16 -5 -20 -21 -13 -10 -33 22 -39 30
-7 31 -8 13 -21 -19 -14 -19 -15 5 -15 14 0 30 -5 37 -12 9 -9 12 -9 12 0 0 7
5 12 11 12 7 0 18 8 25 17 12 16 15 16 24 3 7 -12 10 -7 11 20 1 28 3 30 7 10
4 -23 5 -24 13 -5 5 13 8 -8 8 -57 1 -56 -3 -78 -11 -78 -7 0 -71 -2 -143 -4
-71 -2 -125 -2 -120 0 6 2 10 23 8 46 -2 37 8 57 27 58 3 0 4 -20 2 -45 -5
-52 12 -60 40 -21 15 21 16 26 3 36 -8 7 -13 16 -10 20 3 5 1 11 -5 15 -5 3
-10 18 -10 32 0 15 -3 23 -7 20 -3 -4 -12 1 -19 11 -12 16 -13 15 -23 -8 -7
-19 -10 1 -10 87 -1 89 -4 115 -17 128 -9 9 -21 14 -28 12 -18 -6 -36 -49 -36
-89 0 -26 -5 -38 -14 -38 -8 0 -16 -7 -20 -15 -6 -15 -36 -21 -36 -7 0 4 -11
8 -25 8 -19 0 -22 -3 -13 -13 13 -16 22 -17 12 -1 -4 7 -3 8 5 4 19 -12 2 -27
-19 -16 -13 7 -19 6 -23 -5 -4 -10 -1 -12 10 -8 11 5 14 3 9 -6 -8 -12 -30
-10 -68 4 -8 3 -15 0 -16 -7 -1 -7 -6 -35 -11 -63 -5 -27 -10 -71 -10 -97 l-1
-48 -55 0 -55 0 0 118 c-1 120 -10 153 -45 158 -25 4 -36 -32 -48 -156 l-11
-119 -129 -3 c-81 -2 -131 1 -133 7 -1 6 -5 145 -7 310 l-5 300 305 -3 c289
-2 305 -2 299 15 -4 10 -14 50 -22 88 -8 39 -19 84 -24 100 -5 17 -11 47 -13
68 -2 22 -10 42 -17 47 -7 4 -23 65 -35 136 -13 71 -35 174 -49 229 -13 55
-56 258 -95 450 -73 363 -132 640 -156 735 -14 56 -55 244 -100 465 -60 288
-128 591 -137 600 -14 16 -23 -7 -47 -123 -13 -59 -34 -152 -48 -207 -13 -55
-29 -117 -34 -138 -5 -21 -6 -43 -3 -49 4 -6 3 -8 -3 -5 -5 3 -19 -51 -32
-131 -26 -152 -26 -151 -34 -172 -3 -8 -8 -28 -11 -45 -3 -16 -14 -68 -25
-115 -38 -170 -70 -346 -68 -382 1 -35 7 -43 30 -39 4 1 4 -17 1 -40 -6 -38
-4 -43 41 -89 30 -31 45 -53 40 -61 -5 -7 -4 -10 2 -6 6 4 28 -14 48 -39 29
-35 35 -48 26 -57 -10 -9 -12 -9 -9 3 2 8 -3 14 -10 15 -8 0 -19 10 -26 23
-12 22 -13 22 -27 6 -12 -16 -12 -17 2 -12 9 3 16 1 16 -6 0 -6 -8 -12 -17
-12 -20 0 -20 10 -2 44 13 22 0 32 -14 11 -4 -8 -26 -10 -61 -6 -36 4 -62 1
-80 -8 -21 -11 -29 -12 -35 -2 -5 8 -8 7 -8 -5 0 -9 5 -20 10 -23 6 -3 10 -14
10 -23 0 -15 -2 -15 -11 -2 -8 11 -9 8 -4 -13 4 -19 2 -26 -5 -22 -5 3 -10 4
-10 2 0 -3 -14 -69 -31 -148 -26 -123 -45 -219 -54 -279 -1 -8 -7 -28 -14 -43
-6 -16 -11 -34 -11 -41 0 -7 -11 -58 -25 -114 -14 -56 -26 -109 -28 -119 -1
-10 -6 -24 -10 -31 -5 -7 -7 -23 -5 -36 1 -13 -3 -30 -10 -38 -19 -23 -5 -44
39 -57 39 -12 52 -34 24 -45 -29 -11 -14 -22 30 -22 41 -1 45 1 45 24 0 14 3
22 7 19 3 -4 12 -2 19 4 8 6 21 9 29 5 28 -10 45 5 45 41 0 27 3 34 15 30 8
-4 17 -2 20 3 4 6 15 10 27 10 17 0 19 4 14 26 -5 17 0 37 14 60 l20 35 -24
24 c-15 15 -32 23 -46 20 -16 -3 -19 -1 -12 8 15 18 15 29 0 39 -10 8 -10 9 2
5 8 -2 14 -10 12 -16 -1 -6 9 -16 22 -21 14 -5 30 -19 37 -31 6 -13 47 -66 90
-118 43 -52 76 -98 73 -103 -3 -4 -14 -8 -25 -8 -14 0 -18 4 -13 13 6 9 4 9
-8 -1 -8 -7 -24 -9 -33 -5 -13 5 -16 3 -10 -6 5 -10 2 -11 -14 -6 -17 5 -21 2
-21 -16 0 -12 8 -27 17 -34 15 -11 13 -13 -15 -20 -25 -5 -32 -12 -32 -31 0
-31 18 -31 30 1 16 43 29 27 15 -19 -15 -49 -10 -56 42 -56 16 0 27 -7 30 -20
3 -11 9 -20 14 -20 12 0 18 33 22 128 4 88 12 111 23 67 8 -31 12 -861 4 -868
-3 -3 -63 -7 -133 -9 -145 -3 -131 -13 -141 92 -6 59 -23 81 -57 73 -22 -6
-28 -25 -31 -108 l-3 -59 -42 -1 -42 -1 -6 45 c-17 135 -20 140 -71 144 l-29
2 0 -92 0 -92 -278 -3 -278 -3 3 308 3 307 310 0 310 0 1 35 c0 20 -2 31 -6
25 -4 -6 -12 22 -19 62 -7 40 -24 116 -37 168 -80 305 -125 488 -144 590 -12
63 -32 158 -46 210 -14 52 -34 140 -44 195 -38 197 -90 432 -124 565 -19 74
-53 225 -76 335 -23 110 -52 236 -65 281 -23 76 -77 326 -96 444 -5 30 -11 65
-14 76 -5 23 -31 39 -40 24z m1212 -872 c-3 -8 -6 -5 -6 6 -1 11 2 17 5 13 3
-3 4 -12 1 -19z m1173 -182 c0 -26 -6 -18 -14 19 -5 22 -4 26 4 15 5 -8 10
-24 10 -34z m-13403 -173 c-2 -32 -3 -8 -3 52 0 61 1 87 3 58 2 -29 2 -78 0
-110z m13250 105 c-3 -7 -5 -2 -5 12 0 14 2 19 5 13 2 -7 2 -19 0 -25z m-1020
0 c-3 -8 -6 -5 -6 6 -1 11 2 17 5 13 3 -3 4 -12 1 -19z m1075 -27 c3 -20 -1
-32 -14 -40 -27 -17 -33 -14 -35 17 -3 39 4 52 26 52 13 0 20 -9 23 -29z m-60
-9 c3 -10 0 -22 -7 -28 -8 -8 -11 -3 -12 22 -1 35 11 38 19 6z m148 -86 c0
-52 -6 -43 -13 18 -3 30 -1 43 4 35 5 -8 9 -32 9 -53z m-1175 -424 c-3 -4 -22
11 -43 33 -20 21 -30 33 -20 26 9 -6 18 -8 20 -4 3 4 3 3 2 -4 -5 -20 13 -24
27 -6 10 12 10 14 2 9 -10 -5 -11 -1 -3 18 5 14 9 94 9 178 0 84 1 169 3 188
1 19 4 -70 5 -199 2 -129 1 -236 -2 -239z m964 288 c0 -10 -3 -8 -9 5 -12 27
-12 43 0 25 5 -8 9 -22 9 -30z m111 -34 c0 -11 -19 -15 -25 -6 -3 5 1 10 9 10
9 0 16 -2 16 -4z m-1240 -31 c0 -2 -6 -8 -13 -14 -10 -8 -14 -7 -14 2 0 8 6
14 14 14 7 0 13 -1 13 -2z m1205 -5 c-4 -6 -11 -7 -17 -4 -8 5 -9 1 -5 -10 4
-10 3 -15 -3 -11 -6 3 -10 1 -10 -4 0 -10 7 -13 28 -10 4 1 6 5 5 9 -1 4 6 15
16 24 18 16 20 16 45 -9 14 -14 26 -30 26 -35 0 -15 22 -23 30 -10 5 9 9 9 14
1 4 -6 2 -11 -3 -11 -6 0 -11 -5 -11 -11 0 -5 5 -7 10 -4 6 4 10 -24 9 -77 0
-46 -3 -77 -6 -71 -2 7 -36 43 -74 79 -37 37 -67 70 -64 73 2 4 -7 15 -20 25
-23 17 -23 19 -8 42 14 22 52 36 38 14z m-1195 -40 c8 -5 11 -10 5 -10 -5 0
-17 5 -25 10 -8 5 -10 10 -5 10 6 0 17 -5 25 -10z m-5684 -240 c70 -93 146
-232 190 -350 26 -71 28 -86 31 -265 4 -201 8 -239 23 -230 6 3 10 0 11 -7 0
-10 2 -10 6 1 4 11 7 11 14 0 5 -9 11 -6 20 14 7 15 15 27 19 27 4 0 13 21 20
48 14 52 30 77 30 47 0 -11 18 -55 39 -100 72 -147 101 -269 101 -428 0 -246
-83 -418 -286 -587 -16 -13 -59 -37 -96 -52 -186 -75 -364 -60 -515 43 -52 36
-160 141 -197 192 -62 85 -113 246 -123 387 -7 100 10 222 37 264 10 17 24 54
31 81 14 57 58 155 68 152 16 -5 81 58 95 94 9 22 28 52 41 67 14 15 37 51 53
79 15 29 30 53 33 53 4 0 12 15 19 33 7 17 28 57 45 87 18 30 40 87 49 125 53
226 56 243 50 342 l-6 98 66 -65 c37 -36 96 -103 132 -150z m5739 190 c3 -6
-1 -7 -9 -4 -18 7 -21 14 -7 14 6 0 13 -4 16 -10z m16 -37 c13 -16 12 -17 -3
-4 -10 7 -18 15 -18 17 0 8 8 3 21 -13z m-12134 -320 c-2 -32 -3 -8 -3 52 0
61 1 87 3 58 2 -29 2 -78 0 -110z m12196 96 c-9 -9 -12 -7 -10 9 1 14 5 18 11
12 7 -7 6 -14 -1 -21z m887 -19 c0 -5 -5 -10 -11 -10 -5 0 -7 5 -4 10 3 6 8
10 11 10 2 0 4 -4 4 -10z m2169 -9 c10 -7 7 -9 -12 -8 -15 1 -27 5 -27 10 0
10 22 9 39 -2z m-1861 -208 c-1 -115 -3 -191 -5 -171 -3 26 -8 35 -18 32 -7
-3 -16 -1 -20 5 -4 7 3 11 16 11 12 0 20 3 17 6 -8 8 -77 13 -76 5 0 -3 -3
-16 -7 -29 -6 -17 -13 -22 -27 -19 -15 4 -18 2 -12 -16 6 -19 5 -20 -10 -8
-13 11 -14 17 -4 28 15 18 20 45 7 37 -5 -3 -7 -10 -4 -15 4 -5 4 -9 1 -9 -8
0 -40 64 -38 74 2 5 -2 12 -9 16 -6 4 0 8 15 8 14 0 26 -6 26 -12 0 -6 5 -4
10 4 5 8 10 61 10 118 0 81 3 107 16 119 12 12 18 13 23 4 4 -6 15 -9 24 -5
12 4 17 1 17 -10 0 -25 20 -19 22 7 0 12 4 2 8 -23 l7 -45 1 48 c1 26 4 47 7
47 3 0 4 -93 3 -207z m1685 152 c-3 -9 -8 -14 -10 -11 -3 3 -2 9 2 15 9 16 15
13 8 -4z m-2008 -25 c-2 -27 -15 -38 -15 -13 0 16 8 33 15 33 1 0 1 -9 0 -20z
m165 -1 c0 -5 -9 -9 -20 -9 -22 0 -27 16 -7 23 15 5 27 -1 27 -14z m-143 -31
c-3 -7 -5 -2 -5 12 0 14 2 19 5 13 2 -7 2 -19 0 -25z m390 -45 c-2 -16 -4 -5
-4 22 0 28 2 40 4 28 2 -13 2 -35 0 -50z m-13700 -137 c-14 -11 -15 -15 -5
-19 7 -3 -1 -3 -18 0 -20 3 -34 0 -43 -11 -8 -9 -17 -16 -21 -16 -10 0 -7 27
5 37 4 4 5 2 0 -6 -5 -9 -3 -12 6 -9 8 3 13 11 11 18 -2 8 5 11 22 8 14 -3 31
-1 38 3 21 14 25 10 5 -5z m-90 -88 c-3 -7 -5 -2 -5 12 0 14 2 19 5 13 2 -7 2
-19 0 -25z m160 7 c5 -4 2 -5 -6 0 -11 6 -13 4 -8 -8 9 -23 0 -21 -13 2 -7 15
-7 19 5 17 8 -1 18 -6 22 -11z m12373 -50 c0 -37 -4 -65 -10 -65 -11 0 -14 88
-4 114 11 28 14 17 14 -49z m-10903 -62 c-3 -10 -5 -4 -5 12 0 17 2 24 5 18 2
-7 2 -21 0 -30z m-1553 9 c3 -5 -1 -9 -9 -9 -8 0 -12 4 -9 9 3 4 7 8 9 8 2 0
6 -4 9 -8z m12026 -44 c0 -5 -4 -8 -10 -8 -5 0 -10 10 -10 23 0 18 2 19 10 7
5 -8 10 -18 10 -22z m267 15 c0 -9 -4 -10 -14 -2 -7 6 -13 12 -13 14 0 1 6 2
13 2 8 0 14 -6 14 -14z m-240 -25 c-3 -8 -6 -5 -6 6 -1 11 2 17 5 13 3 -3 4
-12 1 -19z m113 -3 c-10 -12 -10 -18 1 -32 12 -17 12 -17 -4 -2 -18 16 -14 49
5 49 6 0 5 -6 -2 -15z m-151 -32 c0 -25 -1 -26 -9 -8 -12 27 -12 35 0 35 6 0
10 -12 9 -27z m321 7 c9 -17 8 -20 -8 -17 -11 2 -27 11 -36 20 -16 16 -16 17
8 17 15 0 30 -8 36 -20z m119 -100 c-1 -60 -3 -110 -5 -110 -5 0 -134 181
-134 188 0 4 7 -1 14 -11 8 -10 18 -17 22 -16 21 4 28 -2 14 -11 -11 -7 -11
-10 -2 -10 7 0 10 -4 7 -10 -3 -5 -3 -10 2 -11 4 0 15 -2 24 -4 12 -2 15 3 11
20 -4 24 25 85 41 85 4 0 7 -49 6 -110z m-12387 -58 c-5 -1 -8 -13 -6 -25 4
-21 4 -21 -4 -2 -9 20 -8 28 5 63 5 14 7 13 11 -8 2 -13 -1 -26 -6 -28z m37
-24 c0 7 24 -8 51 -34 51 -48 61 -69 18 -40 -12 9 -32 16 -43 16 -12 0 -26 5
-33 12 -6 6 -15 8 -19 4 -4 -4 -1 -11 7 -16 8 -6 10 -10 4 -10 -18 0 -40 30
-27 38 6 4 15 25 19 47 l8 40 7 -35 c3 -19 7 -29 8 -22z m237 -26 c2 -13 9
-20 14 -17 13 8 13 -11 0 -36 -21 -38 -30 -19 -29 59 1 42 4 64 6 47 2 -16 6
-40 9 -53z m84 34 c0 -3 -4 -8 -10 -11 -5 -3 -10 -1 -10 4 0 6 5 11 10 11 6 0
10 -2 10 -4z m13314 -52 c3 -8 2 -12 -4 -9 -6 3 -10 -1 -10 -9 0 -9 -4 -16
-10 -16 -14 0 -13 18 3 35 15 18 14 18 21 -1z m-12184 -62 c-7 -13 -9 -8 -9
23 0 35 1 37 10 17 6 -15 5 -30 -1 -40z m11004 19 c3 -5 -1 -11 -9 -15 -9 -3
-15 0 -15 9 0 16 16 20 24 6z m-12324 -491 l1 -470 -75 0 -75 0 -32 60 c-39
73 -103 135 -155 149 -22 6 -105 11 -186 11 l-148 0 0 37 c0 70 -10 73 -217
73 l-183 0 0 141 0 142 248 -1 c227 -1 506 1 726 6 l88 2 -5 154 c-4 136 -3
166 9 166 2 0 3 -211 4 -470z m13750 132 c151 -2 256 -7 258 -12 2 -6 13 -10
23 -10 11 0 17 -4 14 -10 -3 -5 6 -15 20 -22 18 -8 25 -17 22 -30 -5 -16 2
-18 54 -18 48 0 57 3 53 15 -4 9 0 15 10 15 9 0 16 -7 16 -15 0 -8 9 -15 20
-15 14 0 20 7 20 24 0 13 3 31 6 40 8 20 34 21 34 1 0 -8 7 -15 15 -15 9 0 15
-9 15 -25 0 -20 5 -25 25 -25 14 0 25 -4 25 -10 0 -5 9 -10 20 -10 11 0 20 -4
20 -10 0 -6 -23 -7 -60 -3 l-60 6 0 -57 0 -56 -40 0 c-38 0 -40 2 -40 30 l0
30 -200 0 c-193 0 -200 -1 -200 -20 0 -18 -7 -20 -80 -20 -73 0 -80 -2 -80
-20 0 -17 7 -20 40 -20 38 0 40 -2 40 -30 0 -28 -2 -30 -40 -30 -22 0 -40 -4
-40 -10 0 -5 -9 -10 -21 -10 -15 0 -20 -5 -17 -22 3 -24 6 -25 76 -27 23 0 42
-5 42 -11 0 -5 -19 -11 -42 -12 l-43 -1 43 -4 42 -4 0 -75 c0 -71 -1 -75 -20
-69 -12 4 -31 -1 -48 -14 -21 -14 -47 -20 -103 -22 l-74 -2 -2 54 c-5 119 -8
589 -3 572 5 -17 23 -18 260 -21z m-12530 -294 l0 -308 -139 0 c-157 0 -151
-3 -151 83 0 76 -8 97 -36 97 -19 0 -24 -6 -25 -27 -1 -16 -2 -32 -4 -38 -1
-5 -3 -34 -3 -62 l-2 -53 -59 0 -58 0 -7 86 c-5 72 -26 144 -40 144 -3 0 -11
3 -19 6 -22 8 -37 -53 -37 -148 0 -67 -2 -78 -17 -79 -10 0 -26 -2 -35 -4 -17
-3 -18 11 -18 179 0 175 -5 206 -32 206 -11 0 -34 -50 -42 -90 -3 -19 -6 -88
-7 -152 -1 -102 -3 -116 -16 -111 -12 5 -15 2 -11 -14 4 -16 2 -19 -13 -16
-13 4 -19 14 -19 32 0 28 -15 90 -32 134 -9 22 -16 27 -37 25 -26 -3 -26 -4
-29 -100 l-3 -98 -109 0 -110 0 0 113 c0 63 -3 201 -7 308 l-6 194 561 0 562
0 0 -307z m1200 2 l0 -310 -185 0 -185 0 0 93 c0 104 -12 134 -48 123 -24 -8
-25 -10 -48 -129 l-17 -88 -39 3 -39 3 -3 190 c-2 105 -6 200 -10 212 -10 28
-36 38 -53 20 -18 -18 -33 -155 -33 -305 l0 -123 -37 3 -38 3 -17 83 c-16 78
-61 182 -79 182 -5 0 -14 -10 -20 -22 -12 -23 -8 -196 6 -230 7 -17 -3 -18
-119 -18 l-126 0 -1 273 c0 149 -2 287 -5 304 l-4 33 483 3 c265 1 512 3 550
5 l67 2 0 -310z m12285 291 c-34 -6 -26 -8 46 -13 76 -5 89 -9 113 -33 20 -20
33 -25 52 -21 19 5 24 3 24 -14 0 -11 5 -20 10 -20 23 0 7 -30 -26 -49 -38
-23 -41 -44 -6 -49 34 -5 15 -22 -24 -22 -31 0 -34 -3 -34 -28 0 -24 -7 -32
-40 -47 -22 -10 -40 -24 -40 -32 0 -8 -11 -13 -28 -13 -36 0 -52 -16 -52 -52
0 -29 8 -32 58 -28 16 1 22 -4 22 -18 0 -11 6 -22 13 -25 6 -2 8 -8 4 -13 -4
-5 -11 -3 -15 3 -12 19 -49 29 -92 25 -34 -3 -40 -8 -45 -33 -4 -16 -10 -29
-15 -29 -13 0 -20 104 -23 323 l-2 197 70 -1 c58 -2 63 -3 30 -8z m-197 -173
c0 -73 -3 -117 -5 -98 -5 41 -23 66 -23 31 0 -12 -4 -19 -10 -16 -5 3 -10 26
-10 51 0 26 -5 44 -11 44 -8 0 -8 4 -1 13 5 6 12 21 15 32 2 11 5 -4 6 -34 0
-30 4 -51 8 -47 4 4 6 22 5 40 -3 33 14 116 23 116 3 0 4 -60 3 -132z m592 86
c0 -10 -7 -14 -22 -12 -32 5 -35 28 -4 28 17 0 26 -5 26 -16z m-80 -64 c0 -5
-9 -14 -20 -20 -24 -13 -26 -7 -4 14 18 18 24 20 24 6z m-16180 -200 c0 -20
-5 -20 -127 -18 -112 3 -128 5 -131 21 -3 15 8 17 127 17 125 0 131 -1 131
-20z m270 -6 c0 -25 -2 -26 -37 -20 -21 3 -62 6 -90 6 -46 0 -53 3 -53 20 0
19 7 20 90 20 l90 0 0 -26z m184 17 c4 -5 3 -17 0 -26 -5 -12 -18 -15 -58 -13
-44 3 -51 6 -54 26 -3 20 0 22 52 22 30 0 57 -4 60 -9z m14446 -31 c0 -5 -18
-10 -40 -10 -22 0 -40 5 -40 10 0 6 18 10 40 10 22 0 40 -4 40 -10z m1170 -40
c0 -5 -4 -10 -10 -10 -5 0 -10 5 -10 10 0 6 5 10 10 10 6 0 10 -4 10 -10z
m-15244 -26 c50 -24 95 -89 126 -183 15 -47 28 -86 28 -86 0 0 -39 3 -87 7
-123 9 -313 9 -313 1 0 -5 7 -17 15 -27 8 -11 20 -46 26 -77 13 -64 27 -72 24
-12 -5 71 0 73 145 73 79 0 131 -4 135 -10 7 -12 45 -186 45 -208 0 -10 -33
-13 -155 -11 -86 1 -158 0 -160 -3 -6 -6 21 -106 35 -130 8 -15 6 -18 -12 -18
-13 0 -28 4 -35 8 -6 4 -27 86 -47 182 -31 155 -34 187 -29 275 6 109 21 152
70 196 53 50 116 57 189 23z m13627 4 c5 -17 -12 -68 -24 -68 -5 0 -9 18 -9
40 0 28 4 40 14 40 8 0 16 -6 19 -12z m1647 -48 c0 -17 -7 -20 -40 -20 -33 0
-40 3 -40 20 0 17 7 20 40 20 33 0 40 -3 40 -20z m-2011 -97 c1 -7 -3 -13 -9
-13 -5 0 -10 17 -9 38 1 33 2 34 9 12 4 -14 8 -31 9 -37z m-7134 37 c-3 -5
-11 -10 -16 -10 -6 0 -7 5 -4 10 3 6 11 10 16 10 6 0 7 -4 4 -10z m800 -48
c-3 -3 -11 0 -18 7 -9 10 -8 11 6 5 10 -3 15 -9 12 -12z m6410 -2 c-3 -5 -21
-9 -38 -9 l-32 2 35 7 c19 4 36 8 38 9 2 0 0 -3 -3 -9z m-13939 -20 l91 0 7
-346 c3 -191 5 -348 4 -350 -2 -1 -54 -4 -117 -5 l-113 -1 -5 357 -5 358 24
-6 c13 -4 64 -7 114 -7z m8099 -19 c3 -5 17 -8 30 -5 18 3 25 0 25 -12 0 -14
-8 -16 -52 -10 -29 3 -84 6 -123 6 -47 0 -65 3 -55 9 8 6 26 8 40 5 14 -2 39
0 55 5 40 12 72 13 80 2z m-1776 -50 c11 -6 35 -11 55 -11 19 0 38 -4 41 -10
8 -12 6 -12 -71 1 -35 6 -68 17 -74 25 -9 10 -8 12 8 9 12 -2 30 -8 41 -14z
m5178 13 c-3 -3 -12 -4 -19 -1 -8 3 -5 6 6 6 11 1 17 -2 13 -5z m-5114 -11
c-7 -2 -21 -2 -30 0 -10 3 -4 5 12 5 17 0 24 -2 18 -5z m5157 -3 c8 -5 11 -10
5 -10 -5 0 -17 5 -25 10 -8 5 -10 10 -5 10 6 0 17 -5 25 -10z m1411 -56 c19
-80 30 -393 19 -508 -6 -60 -15 -116 -20 -125 -5 -9 -10 -11 -10 -6 0 6 -9 -1
-18 -13 -18 -23 -19 -20 -32 165 -8 103 -14 256 -14 338 -1 128 2 155 17 184
17 30 21 32 34 19 8 -9 19 -33 24 -54z m-13288 8 c-4 -20 -7 -74 -5 -119 l2
-83 -165 0 -165 0 0 123 0 122 170 -3 171 -3 -8 -37z m7364 42 c-3 -3 -12 -4
-19 -1 -8 3 -5 6 6 6 11 1 17 -2 13 -5z m123 -19 c107 -17 203 -40 261 -61 24
-8 100 -30 169 -48 184 -49 436 -139 414 -147 -11 -4 -45 -15 -76 -25 -52 -15
-58 -15 -73 -1 -9 9 -30 21 -48 26 -109 34 -673 229 -699 242 -10 5 -24 9 -32
9 -8 0 -18 5 -21 10 -8 13 3 12 105 -5z m1009 1 c-2 -2 -51 -6 -109 -8 -59 -3
-85 -2 -60 2 48 7 176 13 169 6z m-1424 -46 c-2 -4 10 -6 28 -5 28 3 33 0 33
-18 -1 -13 5 -22 14 -22 28 -2 75 -18 89 -32 7 -8 26 -17 42 -20 16 -3 29 -9
29 -14 0 -5 6 -6 13 -3 8 3 19 -2 26 -10 10 -12 0 -11 -56 4 -37 9 -102 30
-143 45 -41 15 -84 29 -95 32 -11 3 -27 11 -35 18 -8 7 -24 15 -35 17 -13 3
-5 8 25 15 46 10 74 7 65 -7z m4783 -15 c80 -36 162 -121 191 -200 17 -45 20
-74 18 -163 -2 -100 -5 -114 -35 -175 -79 -159 -265 -241 -421 -183 -37 14
-42 14 -31 1 11 -13 7 -15 -31 -15 -147 0 -286 201 -267 387 16 152 143 305
300 364 78 29 192 22 276 -16z m-4203 -95 c68 -23 137 -48 152 -56 27 -14 25
-14 -37 -8 -35 4 -87 17 -115 29 -27 12 -62 25 -77 29 -51 12 -79 26 -73 36 9
15 15 14 150 -30z m1227 -11 c60 -43 105 -162 95 -253 -9 -88 -46 -142 -132
-193 -36 -22 -78 -15 -118 18 -58 48 -80 99 -85 201 l-4 86 37 49 c20 26 57
65 83 86 50 42 71 43 124 6z m-2549 -54 c13 -61 -16 -235 -39 -235 -7 0 -19
-2 -26 -5 -22 -9 -68 39 -61 63 2 11 0 23 -6 26 -14 9 -14 81 0 121 14 38 65
75 99 72 20 -2 26 -9 33 -42z m510 9 c-2 -7 -11 -15 -19 -18 -9 -3 -12 -1 -9
4 3 6 -5 10 -19 10 -14 0 -30 -8 -35 -17 -6 -11 -11 -13 -11 -5 0 7 -4 10 -10
7 -5 -3 -10 -2 -10 3 0 9 71 29 101 28 9 0 15 -6 12 -12z m-131 -26 c-12 -12
-23 -14 -102 -22 -41 -5 -42 -4 -10 4 19 4 49 13 65 18 44 15 62 15 47 0z
m6294 -50 c34 -39 53 -75 88 -167 64 -167 107 -365 75 -345 -10 6 -33 51 -129
259 -24 52 -72 203 -88 274 -4 20 -2 22 14 13 11 -6 28 -21 40 -34z m-6442 -2
c114 -47 193 -209 156 -320 -23 -69 -102 -136 -163 -136 -57 0 -168 101 -187
170 -15 54 -11 131 9 175 22 48 102 125 131 125 11 0 35 -6 54 -14z m1905 -13
c48 -36 83 -106 88 -177 5 -59 3 -72 -25 -129 -17 -34 -41 -72 -54 -84 -37
-34 -100 -63 -137 -63 -48 0 -115 35 -150 77 -37 44 -65 133 -57 176 12 60 76
138 151 185 61 38 75 43 114 39 24 -3 55 -14 70 -24z m-1089 -3 c56 -28 107
-83 119 -127 16 -58 13 -159 -5 -196 -38 -76 -119 -130 -190 -129 -114 1 -224
125 -224 249 0 73 26 130 73 166 79 60 157 73 227 37z m-642 -23 l37 1 -33
-11 c-29 -9 -36 -8 -55 13 -13 14 -15 18 -4 10 10 -7 35 -13 55 -13z m3172
-27 c0 -10 6 -20 13 -23 6 -2 -1 -4 -17 -4 -19 0 -24 2 -15 8 10 6 11 9 2 9
-7 0 -13 9 -13 20 0 13 5 18 15 14 8 -4 15 -14 15 -24z m3640 -5 c0 -39 -51
-245 -60 -245 -5 0 -11 4 -15 10 -3 5 -11 7 -18 5 -7 -3 -17 6 -24 20 -16 35
10 125 55 188 37 52 62 61 62 22z m-679 -155 c93 -103 179 -218 201 -270 l17
-40 -27 0 c-18 0 -38 13 -65 42 -121 130 -251 348 -208 348 5 0 42 -36 82 -80z
m-8621 66 c0 -2 -8 -10 -17 -17 -16 -13 -17 -12 -4 4 13 16 21 21 21 13z
m-4401 -20 c41 -21 61 -59 61 -111 0 -83 -45 -135 -118 -135 -69 0 -122 61
-122 140 0 33 7 47 40 80 44 44 87 52 139 26z m897 -2 c132 -63 92 -254 -52
-254 -90 0 -155 112 -113 193 38 74 94 94 165 61z m2894 -36 c19 -8 52 -27 74
-41 21 -15 42 -25 45 -22 9 5 54 -85 46 -93 -3 -3 -45 -1 -94 5 -63 8 -119 24
-200 57 -62 25 -121 46 -133 46 -21 0 -21 0 -2 21 27 30 53 42 104 49 54 6
113 -1 160 -22z m-2484 -94 c24 -4 36 -25 25 -43 -5 -8 -42 -9 -137 -4 l-129
8 -3 28 -3 27 113 -5 c62 -4 123 -8 134 -11z m5157 9 c-7 -2 -21 -2 -30 0 -10
3 -4 5 12 5 17 0 24 -2 18 -5z m7177 -43 c0 -5 -5 -10 -11 -10 -5 0 -7 5 -4
10 3 6 8 10 11 10 2 0 4 -4 4 -10z m-1263 -52 c-3 -7 -5 -2 -5 12 0 14 2 19 5
13 2 -7 2 -19 0 -25z m-7939 -3 c-6 -14 -13 -24 -14 -22 -6 6 9 47 17 47 5 0
3 -11 -3 -25z m-31 -97 c-3 -8 -6 -5 -6 6 -1 11 2 17 5 13 3 -3 4 -12 1 -19z
m1646 -35 c-7 -2 -19 -2 -25 0 -7 3 -2 5 12 5 14 0 19 -2 13 -5z m120 0 c-18
-2 -48 -2 -65 0 -18 2 -4 4 32 4 36 0 50 -2 33 -4z m402 -3 c-115 -3 -214 -2
-219 3 -6 4 89 6 210 5 l219 -2 -210 -6z m673 3 c-21 -2 -55 -2 -75 0 -21 2
-4 4 37 4 41 0 58 -2 38 -4z m1189 1 c-3 -3 -12 -4 -19 -1 -8 3 -5 6 6 6 11 1
17 -2 13 -5z m841 -1 c-26 -2 -71 -2 -100 0 -29 2 -8 3 47 3 55 0 79 -1 53 -3z
m-2971 -9 c-3 -3 -12 -4 -19 -1 -8 3 -5 6 6 6 11 1 17 -2 13 -5z m2000 0 c-3
-3 -12 -4 -19 -1 -8 3 -5 6 6 6 11 1 17 -2 13 -5z m706 -1 c-24 -2 -62 -2 -85
0 -24 2 -5 4 42 4 47 0 66 -2 43 -4z m2044 -29 c-3 -3 -12 -4 -19 -1 -8 3 -5
6 6 6 11 1 17 -2 13 -5z m80 0 c-3 -3 -12 -4 -19 -1 -8 3 -5 6 6 6 11 1 17 -2
13 -5z m850 0 c-3 -3 -12 -4 -19 -1 -8 3 -5 6 6 6 11 1 17 -2 13 -5z m4113
-17 c0 -2 -9 -12 -20 -22 -24 -21 -27 -14 -4 9 15 15 24 20 24 13z"/>
<path d="M15473 3295 c0 -8 4 -12 9 -9 5 3 6 10 3 15 -9 13 -12 11 -12 -6z"/>
<path d="M8470 2404 c0 -6 6 -16 13 -23 10 -12 9 -13 -7 -7 -16 5 -17 4 -6 -9
15 -18 17 -18 23 -2 3 7 -1 21 -9 32 -8 10 -14 14 -14 9z"/>
<path d="M8500 2334 c0 -14 4 -23 9 -20 5 3 7 15 4 26 -7 28 -13 25 -13 -6z"/>
<path d="M8377 2124 c-3 -3 -3 -13 0 -22 4 -10 2 -13 -5 -8 -8 5 -10 2 -6 -9
8 -20 16 -12 19 20 3 26 2 29 -8 19z"/>
<path d="M8372 1998 c-2 -7 -3 -25 -5 -40 -3 -34 -10 -41 -44 -42 -25 -1 -29
-6 -35 -41 -14 -86 -24 -110 -42 -110 -22 0 -67 -72 -58 -93 4 -11 1 -14 -11
-9 -9 3 -17 2 -17 -3 0 -6 -4 -10 -10 -10 -5 0 -10 26 -11 58 0 48 -2 53 -10
32 -17 -42 5 -180 29 -180 5 0 9 -6 9 -13 0 -21 55 -97 70 -97 8 0 12 -4 8 -9
-8 -14 53 -58 104 -76 49 -17 166 -21 156 -5 -3 6 1 7 10 4 20 -8 96 16 89 27
-2 4 -12 5 -22 2 -15 -6 -15 -5 1 12 22 21 17 73 -8 91 -10 8 -16 29 -17 60 0
36 -6 52 -22 66 l-21 18 21 18 c23 19 38 63 21 59 -6 -1 -15 17 -20 41 -6 23
-15 42 -21 42 -7 0 -18 21 -25 46 -9 28 -24 53 -42 67 -18 13 -29 30 -29 45 0
36 -44 72 -48 40z m-39 -132 c-3 -4 -9 -2 -14 5 -13 22 -11 31 5 17 8 -7 12
-17 9 -22z m-176 -233 c-4 -3 -2 -12 4 -19 6 -7 7 -19 3 -25 -5 -9 -10 -5 -16
10 -8 22 -4 41 9 41 4 0 3 -3 0 -7z m46 -101 c-5 -21 -6 -21 -18 -5 -11 15
-11 19 3 24 22 8 22 7 15 -19z m34 -2 c1 -16 -2 -32 -8 -35 -5 -4 -6 -12 -2
-18 4 -7 0 -6 -10 2 -17 13 -14 36 4 26 5 -4 9 -2 9 4 0 5 -4 12 -10 16 -9 6
-3 35 9 35 3 0 7 -13 8 -30z m330 -102 c-2 -13 -4 -5 -4 17 -1 22 1 32 4 23 2
-10 2 -28 0 -40z m-277 -10 c0 -4 15 -15 33 -23 22 -10 24 -13 7 -9 -38 10
-64 31 -65 55 -2 21 -1 21 12 4 7 -11 13 -22 13 -27z"/>
<path d="M8750 1932 c0 -5 7 -9 15 -9 8 0 15 4 15 9 0 4 -7 8 -15 8 -8 0 -15
-4 -15 -8z"/>
<path d="M8770 1894 c0 -8 5 -12 10 -9 6 4 8 11 5 16 -9 14 -15 11 -15 -7z"/>
<path d="M8681 1447 c-13 -21 -12 -21 5 -5 10 10 16 20 13 22 -3 3 -11 -5 -18
-17z"/>
<path d="M15396 2731 c-4 -5 -2 -12 3 -15 5 -4 12 -2 15 3 4 5 2 12 -3 15 -5
4 -12 2 -15 -3z"/>
<path d="M15423 2710 c-11 -16 -10 -18 2 -14 8 4 15 12 15 20 0 19 -3 18 -17
-6z"/>
<path d="M14336 2328 c3 -4 11 -5 19 -1 21 7 19 12 -4 10 -11 0 -18 -5 -15 -9z"/>
<path d="M2050 2240 c0 -5 5 -10 10 -10 6 0 10 5 10 10 0 6 -4 10 -10 10 -5 0
-10 -4 -10 -10z"/>
<path d="M16960 1549 c0 -5 5 -7 10 -4 6 3 10 8 10 11 0 2 -4 4 -10 4 -5 0
-10 -5 -10 -11z"/>
<path d="M16672 1670 c0 -14 2 -19 5 -12 2 6 2 18 0 25 -3 6 -5 1 -5 -13z"/>
<path d="M1181 1033 c2 -103 8 -117 52 -121 l37 -3 0 85 c0 47 0 89 0 94 0 4
-20 8 -45 10 l-45 2 1 -67z m59 -27 c0 -41 -4 -77 -9 -80 -10 -7 -21 89 -14
127 10 53 23 26 23 -47z"/>
<path d="M12590 1020 c-8 -5 -13 -10 -10 -11 3 0 12 -2 20 -5 28 -7 105 -25
132 -31 15 -3 25 -9 22 -14 -3 -5 2 -9 10 -9 9 0 19 -1 24 -2 18 -5 116 -118
144 -166 17 -29 33 -51 35 -48 7 7 -26 71 -50 97 -12 13 -21 27 -20 30 1 4
-20 29 -46 56 -36 37 -66 56 -117 75 -90 33 -126 40 -144 28z"/>
<path d="M12582 910 c-18 -4 -36 -11 -40 -15 -7 -8 41 -1 69 10 9 3 24 -1 33
-10 9 -10 36 -19 59 -22 39 -5 40 -4 22 9 -22 16 -82 39 -99 37 -6 -1 -26 -5
-44 -9z"/>
<path d="M12478 863 c-21 -14 -38 -32 -38 -40 0 -8 -5 -11 -11 -8 -6 4 -9 1
-8 -6 2 -8 -6 -32 -17 -55 -12 -23 -18 -48 -14 -59 5 -15 8 -12 13 15 5 23 27
53 72 98 36 35 63 68 59 73 -8 13 -15 11 -56 -18z"/>
<path d="M12535 771 c-42 -19 -89 -81 -67 -89 7 -2 12 -13 13 -25 1 -17 3 -14
10 9 5 18 25 46 44 63 30 26 44 31 86 31 36 0 49 4 47 13 -7 20 -88 19 -133
-2z"/>
<path d="M12575 685 c-14 -13 -25 -33 -25 -44 0 -23 36 -51 66 -51 47 0 72 71
36 103 -26 24 -49 21 -77 -8z m55 -59 c0 -3 -4 -8 -10 -11 -5 -3 -10 -1 -10 4
0 6 5 11 10 11 6 0 10 -2 10 -4z"/>
<path d="M12872 655 c0 -16 2 -22 5 -12 2 9 2 23 0 30 -3 6 -5 -1 -5 -18z"/>
<path d="M12450 633 c0 -12 5 -25 10 -28 13 -8 13 15 0 35 -8 12 -10 11 -10
-7z"/>
<path d="M12719 568 c-21 -21 -34 -38 -30 -38 9 0 76 69 70 72 -2 2 -20 -14
-40 -34z"/>
<path d="M12385 560 c-5 -9 -4 -11 3 -6 7 4 12 1 12 -6 0 -20 26 -53 33 -42 3
5 -5 22 -18 38 -16 20 -25 25 -30 16z"/>
<path d="M12470 561 c0 -6 4 -13 10 -16 6 -3 7 1 4 9 -7 18 -14 21 -14 7z"/>
<path d="M12294 533 c3 -16 16 -22 16 -8 0 3 0 10 0 15 0 6 -4 10 -9 10 -5 0
-8 -8 -7 -17z"/>
<path d="M12440 492 c0 -4 9 -13 20 -20 11 -7 20 -9 20 -4 0 4 -9 13 -20 20
-11 7 -20 9 -20 4z"/>
<path d="M12840 475 c-7 -9 -10 -18 -7 -21 3 -3 10 4 17 15 13 25 8 27 -10 6z"/>
<path d="M12368 439 c21 -24 21 -39 -1 -39 -6 0 -8 3 -4 6 6 6 -16 34 -28 34
-12 0 15 -38 39 -53 19 -13 26 -14 35 -3 8 9 1 21 -27 47 -20 19 -27 22 -14 8z"/>
<path d="M9723 713 c-1 -19 1 -22 8 -12 11 17 12 39 2 39 -5 0 -9 -12 -10 -27z"/>
<path d="M9813 705 c0 -22 2 -30 4 -17 2 12 2 30 0 40 -3 9 -5 -1 -4 -23z"/>
<path d="M9630 682 c0 -37 27 -90 50 -97 32 -10 34 0 5 29 -14 14 -32 41 -40
59 -12 27 -14 29 -15 9z"/>
<path d="M7531 668 c7 -13 18 -45 24 -73 10 -40 13 -44 14 -20 1 29 -32 115
-44 115 -3 0 0 -10 6 -22z"/>
<path d="M7334 626 c-19 -78 120 -217 164 -163 9 10 4 12 -21 9 -58 -7 -117
62 -117 137 0 38 -17 50 -26 17z"/>
<path d="M7420 623 c0 -15 14 -42 36 -72 1 -1 7 0 13 3 14 9 -7 64 -30 77 -15
8 -19 6 -19 -8z"/>
<path d="M7529 493 c-13 -16 -12 -17 4 -4 9 7 17 15 17 17 0 8 -8 3 -21 -13z"/>
<path d="M9250 740 c-11 -7 -2 -10 33 -10 39 0 53 -5 73 -27 13 -14 28 -40 33
-57 5 -17 10 -23 10 -14 1 26 -18 70 -41 96 -23 23 -80 30 -108 12z"/>
<path d="M9246 621 c-10 -11 -16 -28 -13 -38 4 -14 5 -14 6 5 1 17 7 22 30 22
23 0 31 -5 34 -22 4 -23 4 -23 6 -1 1 21 -22 53 -38 53 -4 0 -16 -9 -25 -19z"/>
<path d="M9140 528 c0 -21 38 -68 55 -68 7 0 15 -6 18 -12 2 -7 7 -10 11 -7 3
3 -14 27 -39 54 -25 27 -45 41 -45 33z"/>
<path d="M8227 721 c23 -22 39 -28 28 -11 -3 5 -16 15 -28 21 l-22 11 22 -21z"/>
<path d="M8280 694 c0 -4 9 -17 20 -29 11 -12 24 -42 29 -66 l9 -44 1 40 c1
32 -5 48 -29 73 -16 18 -30 30 -30 26z"/>
<path d="M8054 606 c-22 -22 66 -146 114 -158 13 -4 2 13 -33 47 -32 32 -56
67 -61 88 -7 25 -12 31 -20 23z"/>
<path d="M8170 610 c0 -21 31 -70 43 -70 18 0 37 21 37 41 0 10 -13 22 -31 28
-40 14 -49 14 -49 1z"/>
<path d="M8280 468 c0 -5 -4 -7 -9 -4 -5 3 -11 -1 -15 -9 -7 -20 4 -19 33 4
17 13 19 18 7 18 -9 0 -16 -4 -16 -9z"/>
<path d="M656 588 c-32 -46 -11 -110 40 -122 39 -10 64 17 64 69 0 28 -6 47
-18 58 -26 24 -68 21 -86 -5z"/>
<path d="M1559 573 c-27 -31 -29 -40 -18 -71 15 -42 60 -60 94 -38 14 10 31
28 37 42 26 56 -73 114 -113 67z"/>
<path d="M4026 4788 c-36 -18 -38 -22 -23 -33 9 -7 17 -26 17 -42 0 -16 3 -32
6 -35 11 -12 44 5 44 22 0 13 6 16 25 12 16 -3 25 -11 25 -24 0 -10 -4 -17 -8
-14 -5 3 -9 -1 -9 -9 0 -12 3 -12 15 -2 8 6 17 11 19 10 1 -2 3 0 4 5 0 4 8
15 17 25 15 17 15 21 1 45 -9 15 -21 26 -28 24 -7 -1 -10 2 -6 7 6 11 -25 31
-47 31 -7 -1 -31 -10 -52 -22z"/>
<path d="M12466 4735 c-8 -9 -18 -14 -21 -13 -3 2 -21 -10 -40 -25 -36 -29
-49 -74 -20 -74 12 0 12 3 2 16 -9 12 -9 13 1 7 6 -4 12 -2 12 3 0 6 -5 11
-12 11 -6 0 -3 8 8 19 10 10 25 16 33 13 10 -4 12 -1 6 8 -5 8 -4 11 3 6 6 -4
8 -14 5 -22 -3 -9 0 -20 8 -25 8 -4 14 -14 14 -21 0 -7 5 -13 11 -13 6 0 19
-9 30 -19 16 -17 16 -19 2 -13 -20 7 -34 -8 -18 -18 6 -4 19 0 29 9 10 9 20
16 24 16 3 0 18 12 32 26 20 20 23 29 14 40 -6 7 -15 11 -20 8 -5 -3 -9 1 -9
9 0 11 -29 38 -67 60 -6 4 -18 0 -27 -8z"/>
<path d="M4060 4666 c0 -2 7 -7 16 -10 8 -3 12 -2 9 4 -6 10 -25 14 -25 6z"/>
<path d="M2845 4621 c-17 -7 -15 -9 13 -13 18 -2 36 0 39 5 3 6 1 7 -5 3 -7
-4 -12 -2 -12 3 0 13 -7 13 -35 2z"/>
<path d="M5865 4621 c-45 -5 -50 -9 -53 -32 -2 -15 2 -28 10 -30 7 -2 601 -3
1320 -1 l1308 2 16 25 c9 14 15 28 12 30 -7 7 -2556 13 -2613 6z"/>
<path d="M10105 4619 c-165 -3 -301 -6 -302 -7 -2 -1 -3 -13 -3 -27 l0 -25
1065 0 c1064 0 1064 0 1075 21 6 11 10 25 7 32 -4 13 -1259 17 -1842 6z"/>
<path d="M2917 4599 c7 -7 15 -10 18 -7 3 3 -2 9 -12 12 -14 6 -15 5 -6 -5z"/>
<path d="M2883 4573 c1 -18 4 -20 17 -10 25 19 26 20 8 14 -9 -3 -19 -1 -21 6
-3 7 -4 2 -4 -10z"/>
<path d="M2947 4577 c-3 -8 1 -21 9 -27 15 -13 17 -6 5 24 -6 17 -8 17 -14 3z"/>
<path d="M2706 4572 c-3 -5 1 -9 9 -9 8 0 12 4 9 9 -3 4 -7 8 -9 8 -2 0 -6 -4
-9 -8z"/>
<path d="M2728 4533 c6 -2 18 -2 25 0 6 3 1 5 -13 5 -14 0 -19 -2 -12 -5z"/>
<path d="M5199 4496 c10 -12 9 -13 -7 -9 -22 5 -72 -23 -72 -41 0 -6 9 -22 19
-35 l18 -24 6 25 c4 14 18 37 33 51 24 25 26 47 2 47 -7 0 -6 -5 1 -14z m-21
-41 c-3 -3 -9 2 -12 12 -6 14 -5 15 5 6 7 -7 10 -15 7 -18z"/>
<path d="M5340 3975 c0 -2 9 -9 20 -15 16 -9 20 -8 20 5 0 8 -9 15 -20 15 -11
0 -20 -2 -20 -5z"/>
<path d="M5438 3973 c7 -3 16 -2 19 1 4 3 -2 6 -13 5 -11 0 -14 -3 -6 -6z"/>
<path d="M5494 3963 c3 -4 -4 -13 -16 -20 l-23 -13 25 2 c25 3 43 38 19 38 -7
0 -9 -3 -5 -7z"/>
<path d="M5356 3918 c3 -5 10 -6 15 -3 13 9 11 12 -6 12 -8 0 -12 -4 -9 -9z"/>
<path d="M9222 3847 c-16 -17 -22 -36 -22 -71 0 -40 5 -53 30 -78 18 -17 37
-28 45 -24 8 3 15 1 15 -4 0 -5 7 -7 15 -4 8 4 15 12 15 19 0 7 6 15 13 18 8
3 14 24 15 50 2 38 -2 51 -29 81 -36 42 -66 46 -97 13z"/>
<path d="M11108 3813 c6 -2 18 -2 25 0 6 3 1 5 -13 5 -14 0 -19 -2 -12 -5z"/>
<path d="M7460 3293 c0 -48 -7 -120 -15 -158 -20 -93 -18 -151 4 -201 36 -79
94 -95 145 -41 74 79 84 197 25 308 -34 63 -107 152 -140 170 -18 9 -19 5 -19
-78z"/>
<path d="M9180 3303 c0 -57 24 -161 46 -206 23 -45 74 -97 96 -97 28 0 58 58
58 110 0 59 -42 132 -110 193 -69 63 -90 62 -90 0z"/>
<path d="M14100 3281 c0 -6 4 -13 10 -16 6 -3 7 1 4 9 -7 18 -14 21 -14 7z"/>
<path d="M17590 3179 c0 -6 -7 -9 -15 -5 -8 3 -21 -1 -29 -9 -8 -8 -21 -15
-30 -15 -8 0 -18 -5 -21 -10 -4 -6 -29 -22 -57 -36 -27 -14 -48 -27 -45 -30 6
-7 97 38 97 48 0 4 10 8 23 8 12 0 35 9 51 19 17 11 33 18 38 15 4 -3 5 2 2
10 -7 19 -14 21 -14 5z"/>
<path d="M15405 3130 c-3 -5 -1 -10 4 -10 6 0 11 5 11 10 0 6 -2 10 -4 10 -3
0 -8 -4 -11 -10z"/>
<path d="M17340 3039 c0 -5 -4 -8 -8 -5 -5 3 -21 -6 -38 -20 -19 -17 -22 -22
-8 -15 12 6 23 8 26 6 3 -3 15 6 28 20 13 14 18 25 12 25 -7 0 -12 -5 -12 -11z"/>
<path d="M15290 2958 c0 -27 4 -38 15 -38 19 0 19 17 0 50 l-14 25 -1 -37z"/>
<path d="M11558 2963 c7 -3 16 -2 19 1 4 3 -2 6 -13 5 -11 0 -14 -3 -6 -6z"/>
<path d="M11140 2926 c-47 -12 -94 -27 -105 -33 -18 -10 -16 -12 16 -10 21 1
35 5 32 10 -7 12 32 8 45 -5 7 -7 12 -21 12 -32 1 -19 1 -19 11 -3 5 9 19 17
29 17 14 0 20 7 20 21 0 11 -4 18 -9 15 -5 -3 -11 1 -15 9 -4 12 4 15 37 16
23 1 53 5 67 9 60 19 -59 8 -140 -14z"/>
<path d="M10915 2846 c-100 -40 -288 -138 -327 -171 -16 -14 -34 -25 -39 -25
-6 0 -7 -5 -3 -12 4 -7 3 -8 -5 -4 -18 12 -72 -33 -69 -57 2 -15 -2 -22 -14
-22 -10 0 -18 -4 -17 -10 0 -5 8 -9 17 -7 14 2 15 1 2 -7 -8 -5 -17 -8 -21 -5
-12 7 -21 -15 -14 -36 4 -11 13 -20 20 -20 9 0 12 -6 9 -15 -5 -13 22 -15 210
-15 l216 0 0 40 c0 33 3 40 20 40 12 0 17 5 14 13 -6 17 21 41 36 32 6 -4 10
7 10 29 0 25 -5 36 -15 36 -8 0 -26 5 -40 12 -20 9 -25 18 -25 48 0 33 3 38
32 46 23 7 36 18 43 39 5 17 23 42 38 56 22 20 25 28 15 37 -10 7 -34 2 -93
-22z m92 8 c-3 -3 -12 -4 -19 -1 -8 3 -5 6 6 6 11 1 17 -2 13 -5z m-239 -214
c30 -14 32 -17 32 -67 l0 -53 -40 0 -40 0 0 71 c0 39 3 69 8 67 4 -3 22 -11
40 -18z m112 -100 c0 -21 -24 -28 -35 -10 -8 14 3 30 21 30 8 0 14 -9 14 -20z
m-200 -10 c0 -5 -4 -10 -10 -10 -5 0 -10 5 -10 10 0 6 5 10 10 10 6 0 10 -4
10 -10z"/>
<path d="M11203 2800 c0 -25 2 -35 4 -22 2 12 2 32 0 45 -2 12 -4 2 -4 -23z"/>
<path d="M10960 2749 c0 -5 5 -7 10 -4 6 3 10 8 10 11 0 2 -4 4 -10 4 -5 0
-10 -5 -10 -11z"/>
<path d="M15310 2719 c0 -5 5 -7 10 -4 6 3 10 8 10 11 0 2 -4 4 -10 4 -5 0
-10 -5 -10 -11z"/>
<path d="M15210 2705 c0 -8 5 -15 10 -15 6 0 10 7 10 15 0 8 -4 15 -10 15 -5
0 -10 -7 -10 -15z"/>
<path d="M12323 2697 c0 -8 6 -14 14 -14 9 0 10 4 2 14 -6 7 -12 13 -14 13 -1
0 -2 -6 -2 -13z"/>
<path d="M12360 2694 c0 -3 10 -14 23 -25 23 -20 52 -26 42 -9 -4 6 -11 8 -16
5 -5 -4 -9 -2 -9 4 0 6 -9 15 -20 21 -11 6 -20 8 -20 4z"/>
<path d="M15310 2689 c0 -5 5 -7 10 -4 6 3 10 8 10 11 0 2 -4 4 -10 4 -5 0
-10 -5 -10 -11z"/>
<path d="M336 2575 c14 -12 15 -14 2 -9 -13 4 -15 1 -11 -16 3 -11 8 -18 11
-16 2 3 24 -14 47 -37 23 -23 62 -60 85 -82 l43 -40 -29 45 c-43 68 -134 170
-152 170 -13 0 -12 -3 4 -15z"/>
<path d="M10437 2576 c-17 -13 -16 -14 6 -12 15 0 23 6 20 14 -6 14 -4 15 -26
-2z"/>
<path d="M15295 2559 c-4 -6 -5 -12 -2 -15 2 -3 7 2 10 11 7 17 1 20 -8 4z"/>
<path d="M10352 2511 c-38 -28 -72 -64 -42 -46 9 5 11 4 6 -4 -4 -6 -11 -9
-16 -6 -10 6 -160 -138 -160 -153 0 -15 0 -15 41 2 19 7 39 12 46 9 7 -3 10 7
9 26 -1 17 2 31 7 31 4 0 5 6 1 13 -6 9 -4 9 8 -1 22 -17 34 3 17 26 -7 9 -1
6 13 -8 14 -14 23 -29 20 -34 -3 -5 0 -6 7 -2 9 6 9 11 0 22 -10 12 -9 13 7 7
10 -3 22 -11 26 -17 10 -16 38 13 38 40 0 13 4 24 9 24 4 0 8 23 8 50 -1 28
-1 50 -2 50 -1 0 -20 -13 -43 -29z m24 -16 c0 -18 -3 -22 -13 -14 -6 6 -18 8
-25 4 -7 -4 -2 3 12 14 14 11 25 21 26 21 0 0 0 -11 0 -25z m-11 -36 c11 -16
1 -19 -13 -3 -7 8 -8 14 -3 14 5 0 13 -5 16 -11z m-155 -119 c0 -5 -5 -10 -11
-10 -5 0 -7 5 -4 10 3 6 8 10 11 10 2 0 4 -4 4 -10z"/>
<path d="M10217 2289 c7 -7 15 -10 18 -7 3 3 -2 9 -12 12 -14 6 -15 5 -6 -5z"/>
<path d="M14246 2247 c3 -10 9 -15 12 -12 3 3 0 11 -7 18 -10 9 -11 8 -5 -6z"/>
<path d="M10023 2216 c-9 -11 -7 -14 12 -12 17 1 21 4 13 14 -12 14 -10 14
-25 -2z"/>
<path d="M14280 2171 c0 -6 5 -13 10 -16 6 -3 10 1 10 9 0 9 -4 16 -10 16 -5
0 -10 -4 -10 -9z"/>
<path d="M13892 2090 c0 -14 2 -19 5 -12 2 6 2 18 0 25 -3 6 -5 1 -5 -13z"/>
<path d="M13870 2084 c0 -10 5 -26 10 -34 8 -11 9 -7 4 15 -8 37 -14 45 -14
19z"/>
<path d="M9470 1810 c-8 -5 -10 -10 -5 -10 6 0 17 5 25 10 8 5 11 10 5 10 -5
0 -17 -5 -25 -10z"/>
<path d="M6584 1667 c3 -10 6 -21 6 -23 0 -3 5 -2 10 1 6 4 11 -9 12 -32 0
-21 2 -42 3 -48 2 -5 4 -19 5 -30 1 -17 3 -16 10 6 9 31 -3 116 -18 131 -9 9
-12 8 -12 -2 0 -13 -2 -13 -11 0 -9 12 -10 12 -5 -3z"/>
<path d="M6920 1640 c-23 -23 -27 -105 -9 -190 11 -53 17 -58 38 -37 11 10 13
9 8 -5 -7 -21 -3 -24 46 -33 32 -6 37 -5 38 11 0 18 1 18 8 -1 7 -16 9 -13 15
19 9 46 -1 190 -16 229 -9 24 -15 27 -59 27 -36 0 -54 -5 -69 -20z"/>
<path d="M6592 1590 c0 -14 2 -19 5 -12 2 6 2 18 0 25 -3 6 -5 1 -5 -13z"/>
<path d="M15518 1520 c-3 -10 -16 -14 -41 -12 -28 2 -37 -1 -37 -13 0 -11 11
-15 40 -15 41 0 57 14 48 42 -4 10 -6 9 -10 -2z"/>
<path d="M15395 1500 c3 -5 12 -7 20 -3 21 7 19 13 -6 13 -11 0 -18 -4 -14
-10z"/>
<path d="M15045 1471 c-3 -5 -2 -12 3 -15 5 -3 9 1 9 9 0 17 -3 19 -12 6z"/>
<path d="M15330 1415 c0 -8 5 -15 10 -15 6 0 10 7 10 15 0 8 -4 15 -10 15 -5
0 -10 -7 -10 -15z"/>
<path d="M15530 1311 c0 -6 5 -13 10 -16 6 -3 10 1 10 9 0 9 -4 16 -10 16 -5
0 -10 -4 -10 -9z"/>
<path d="M15473 1297 c-39 -13 -44 -37 -8 -37 14 0 25 5 25 10 0 6 7 10 15 10
8 0 15 7 15 15 0 17 -1 17 -47 2z"/>
</g>
</svg>
